<?xml version="1.0" encoding="UTF-8"?>
<!-- Generator: Adobe Illustrator 25.2.3, SVG Export Plug-In . SVG Version: 6.00 Build 0)  -->
<svg version="1.1" id="Layer_1" xmlns="http://www.w3.org/2000/svg" xmlns:xlink="http://www.w3.org/1999/xlink" x="0px" y="0px" viewBox="0 0 569.626 137.85" style="enable-background:new 0 0 569.626 137.85;" xml:space="preserve">
<style type="text/css">
	.st0{fill:#FFFFFF;}
	.st1{fill:none;stroke:#363794;stroke-width:3.8031;stroke-miterlimit:10;}
	.st2{fill:#0F9DA7;}
	.st3{fill:#009949;}
	.st4{fill:#00809A;}
	.st5{opacity:0.64;fill:url(#SVGID_1_);}
	.st6{fill:#363794;}
	.st7{fill:#2E67B1;}
	.st8{fill:#97C93D;}
	.st9{opacity:0.86;fill:#363794;}
</style>
<circle class="st0" cx="69.044" cy="67.96" r="61.147"/>
<circle class="st1" cx="68.982" cy="68.03" r="59.347"/>
<circle class="st2" cx="110.768" cy="47.919" r="4.076"/>
<circle class="st3" cx="85.731" cy="27.254" r="1.311"/>
<polygon class="st4" points="93.966,23.563 94.821,26.396 97.639,27.298 95.209,28.986 95.222,31.945 92.866,30.156 90.056,31.082   91.029,28.288 89.28,25.902 92.238,25.965 "/>
<circle class="st3" cx="114.078" cy="56.012" r="1.686"/>
<g>
	<radialGradient id="SVGID_1_" cx="68.9824" cy="68.0299" r="52.8699" gradientUnits="userSpaceOnUse">
		<stop offset="0" style="stop-color:#FFFFFF"/>
		<stop offset="0.2404" style="stop-color:#FDFEFC"/>
		<stop offset="0.3895" style="stop-color:#F8FCF4"/>
		<stop offset="0.5137" style="stop-color:#F0F7E5"/>
		<stop offset="0.6243" style="stop-color:#E3F1D1"/>
		<stop offset="0.7259" style="stop-color:#D3E9B6"/>
		<stop offset="0.8208" style="stop-color:#BFDF95"/>
		<stop offset="0.9103" style="stop-color:#A8D36E"/>
		<stop offset="0.9939" style="stop-color:#8DC643"/>
		<stop offset="1" style="stop-color:#8BC53F"/>
		<stop offset="1" style="stop-color:#9DCC59"/>
	</radialGradient>
	<path class="st5" d="M122.351,68.03c0,29.475-23.892,53.37-53.366,53.37c-29.478,0-53.371-23.895-53.371-53.37   c0-29.476,23.894-53.371,53.371-53.371C98.459,14.659,122.351,38.554,122.351,68.03z"/>
	<g>
		<path class="st6" d="M65.701,36.129c0,0,2.126-5.076,1.797-7.672c-0.31-2.587-7.93-10.497-13.908-9.215    c-5.988,1.273-11.562,8.758-10.773,20.604c0.065,1.011-2.342,1.706-4.127,3.035c-1.565,1.161-8.555,6.238-9.43,19.071    c-0.886,12.831,4.602,29.271,18.429,39.984c3.961,3.079,11.76,2.837,13.648,3.001c0,0-19.42-12.825-15.936-30.714    c0.955-4.905,6.19-5.543,7.799-4.451c2.05,1.389,15.997,14.314,18.292,16.19c2.299,1.873,5.295,2.053,5.194-1.711    c-0.128-4.498,0.445-2.582-0.76-3.378c-1.21-0.789-7.464-9.947-12.198-22.405c-4.554-11.973-7.878-9.722-9.204-12.295    c-1.133-2.193,1.097-0.799,2.7-0.623c1.604,0.186,4.128-0.448,6.199-4.617c0.306-0.603,0.722-0.03,1.719-0.213    c0.808-0.152,0.911-0.883,0.848-1.75C65.933,38.1,65.651,37.44,65.701,36.129z"/>
		<path class="st6" d="M26.551,72.68c0,0,2.616,17.534,18.369,31.087c0,0-12.252,1.41-18.697-5.705    C26.223,98.061,24.714,78.316,26.551,72.68z"/>
	</g>
	<path class="st7" d="M80.517,71.93c-1.467-1.659-3.049-2.612-4.157-4.621c-0.928-1.665-1.765-2.828-1.97-3.766   c-0.172-0.757-1.259-4.63,0.137-6.827c4.973-7.821,16.849-5.053,18.06-4.557c1.967,0.816,2.111,4.118,2.332,6.079   c0.928,2.585,0.627,4.194,0.644,6.01c0.075,3.597-1.676,5.575-3.782,7.466c0,0,5.596,1.784,9.687,3.327   c4.115,1.548,7.931,2.825,10.379,6.2c1.101,1.475,2.954,4.439,2.481,9.744c-0.58,6.412-9.083,10.273-10.504,10.924   c-1.401,0.65,3.107-5.579,1.872-9.943c-3.225-11.306-18.299-3.273-20.931-2.827c-3.804,0.662-7.713-0.982-11.074,0.03   c-3.842,1.154-9.593,4.133-6.439,8.892c1.856,2.81,13.905,7.206,15.358,7.427c0,0-16.424,1.039-20.946-3.111   c-2.952-2.706-10.998-8.182-1.083-17.639C67.366,78.272,78.876,70.073,80.517,71.93z"/>
	<path class="st8" d="M70.949,94.848l14.133,17.446c0,0,7.859-3.788,15.298-1.763c0,0,1.558-3.652,12.699-3.655L98.967,89.538   c0,0-10.545-0.47-13.798,2.674C85.169,92.212,73.529,91.966,70.949,94.848z"/>
	<polygon class="st7" points="97.458,32.233 101.734,35.118 106.535,33.231 105.113,38.189 108.391,42.172 103.236,42.351    100.461,46.7 98.697,41.853 93.704,40.558 97.769,37.382  "/>
</g>
<polygon class="st9" points="107.668,58.465 112.619,61.769 118.147,59.563 116.535,65.293 120.341,69.869 114.394,70.106   111.218,75.14 109.154,69.557 103.386,68.092 108.058,64.404 "/>
<polygon class="st7" points="80.496,19.88 82.499,21.153 84.682,20.226 84.09,22.523 85.647,24.314 83.279,24.46 82.058,26.495   81.186,24.288 78.874,23.755 80.704,22.244 "/>
<polygon class="st3" points="69.998,17.133 71.597,18.15 73.341,17.409 72.868,19.244 74.112,20.673 72.22,20.791 71.245,22.415   70.549,20.653 68.702,20.227 70.164,19.021 "/>
<circle class="st4" cx="76.566" cy="20.385" r="1.311"/>
<circle class="st2" cx="100.527" cy="30.012" r="1.311"/>
<g>
	<path class="st6" d="M154.03,64.145c2.66,0,4.944,0.336,6.854,1.009c1.908,0.673,3.48,1.6,4.716,2.78   c1.235,1.18,2.146,2.572,2.733,4.176c0.587,1.604,0.881,3.338,0.881,5.2c0,2.01-0.302,3.854-0.907,5.531   c-0.605,1.678-1.529,3.116-2.772,4.314c-1.244,1.199-2.82,2.135-4.729,2.808c-1.909,0.673-4.168,1.01-6.776,1.01h-4.561v13.469   h-8.758V64.145H154.03z M154.03,83.92c2.28,0,3.921-0.581,4.923-1.743c1.002-1.161,1.503-2.783,1.503-4.867   c0-0.922-0.129-1.761-0.389-2.517c-0.259-0.756-0.652-1.406-1.179-1.95c-0.527-0.544-1.192-0.963-1.995-1.259   c-0.803-0.295-1.758-0.442-2.863-0.442h-4.561V83.92H154.03z"/>
	<path class="st6" d="M196.835,75.761v28.681h-4.975c-1.002,0-1.658-0.479-1.969-1.438l-0.466-1.659   c-0.518,0.535-1.054,1.019-1.606,1.452c-0.553,0.434-1.145,0.802-1.775,1.106c-0.631,0.304-1.313,0.543-2.047,0.719   c-0.734,0.175-1.533,0.263-2.397,0.263c-1.468,0-2.768-0.272-3.899-0.815c-1.132-0.544-2.086-1.305-2.863-2.282   c-0.777-0.977-1.365-2.13-1.762-3.457c-0.397-1.327-0.596-2.784-0.596-4.37V75.761h8.033v18.198c0,1.42,0.302,2.517,0.907,3.291   c0.604,0.774,1.494,1.162,2.669,1.162c0.881,0,1.706-0.198,2.474-0.595s1.516-0.936,2.242-1.618V75.761H196.835z"/>
	<path class="st6" d="M210.308,78.803c1.037-1.051,2.172-1.895,3.407-2.53c1.235-0.637,2.613-0.954,4.133-0.954   s2.902,0.332,4.146,0.995c1.244,0.664,2.306,1.609,3.187,2.835c0.881,1.227,1.559,2.706,2.034,4.439   c0.475,1.733,0.712,3.669,0.712,5.808c0,2.323-0.276,4.435-0.829,6.334c-0.553,1.899-1.334,3.526-2.345,4.881   c-1.01,1.355-2.215,2.406-3.614,3.153c-1.399,0.747-2.945,1.12-4.638,1.12c-0.812,0-1.538-0.083-2.177-0.249   s-1.227-0.4-1.762-0.705c-0.536-0.304-1.023-0.668-1.464-1.093c-0.44-0.424-0.868-0.885-1.283-1.383l-0.285,1.438   c-0.138,0.59-0.363,0.996-0.673,1.217c-0.311,0.222-0.726,0.332-1.244,0.332h-5.337V63.038h8.032V78.803z M210.308,96.642   c0.604,0.701,1.261,1.199,1.969,1.494c0.708,0.295,1.425,0.442,2.151,0.442c0.76,0,1.459-0.152,2.099-0.456   c0.639-0.305,1.188-0.803,1.646-1.494c0.458-0.691,0.816-1.604,1.075-2.738c0.259-1.134,0.389-2.53,0.389-4.189   c0-1.438-0.1-2.66-0.298-3.665c-0.199-1.005-0.493-1.825-0.881-2.461c-0.389-0.637-0.872-1.098-1.451-1.383   c-0.579-0.286-1.24-0.429-1.982-0.429c-0.984,0-1.839,0.23-2.565,0.691s-1.443,1.134-2.151,2.019V96.642z"/>
	<path class="st6" d="M240.079,63.038v41.403h-8.032V63.038H240.079z"/>
	<path class="st6" d="M254.563,67.907c0,0.682-0.13,1.323-0.389,1.922c-0.259,0.6-0.613,1.125-1.062,1.576   c-0.449,0.452-0.972,0.812-1.567,1.079c-0.596,0.268-1.231,0.4-1.905,0.4c-0.657,0-1.27-0.133-1.839-0.4   c-0.57-0.268-1.076-0.627-1.516-1.079c-0.44-0.451-0.786-0.977-1.036-1.576c-0.251-0.599-0.376-1.24-0.376-1.922   c0-0.701,0.125-1.355,0.376-1.964c0.25-0.608,0.596-1.143,1.036-1.604c0.44-0.46,0.946-0.82,1.516-1.079   c0.57-0.258,1.183-0.387,1.839-0.387c0.674,0,1.309,0.129,1.905,0.387c0.596,0.258,1.118,0.618,1.567,1.079   c0.449,0.461,0.803,0.996,1.062,1.604C254.433,66.551,254.563,67.205,254.563,67.907z M253.734,75.761v28.681h-8.033V75.761   H253.734z"/>
	<path class="st6" d="M279.101,82.565c-0.242,0.313-0.476,0.562-0.699,0.747c-0.226,0.184-0.545,0.276-0.959,0.276   c-0.397,0-0.756-0.102-1.075-0.305c-0.32-0.202-0.679-0.429-1.075-0.678c-0.397-0.249-0.864-0.475-1.399-0.678   c-0.536-0.202-1.201-0.304-1.995-0.304c-0.984,0-1.836,0.193-2.552,0.581c-0.717,0.387-1.309,0.94-1.775,1.659   s-0.812,1.6-1.037,2.642c-0.225,1.042-0.337,2.217-0.337,3.526c0,2.747,0.497,4.858,1.49,6.333   c0.993,1.476,2.362,2.213,4.107,2.213c0.933,0,1.671-0.125,2.215-0.373c0.544-0.249,1.006-0.526,1.387-0.83   c0.38-0.305,0.729-0.585,1.049-0.844c0.319-0.258,0.722-0.387,1.205-0.387c0.639,0,1.123,0.248,1.451,0.746l2.332,3.07   c-0.829,1.015-1.702,1.839-2.617,2.476c-0.916,0.636-1.853,1.134-2.812,1.493c-0.958,0.359-1.922,0.608-2.889,0.747   c-0.968,0.138-1.909,0.207-2.824,0.207c-1.642,0-3.209-0.332-4.703-0.995c-1.494-0.664-2.807-1.628-3.938-2.891   s-2.03-2.816-2.695-4.66s-0.998-3.945-0.998-6.306c0-2.065,0.289-3.997,0.868-5.795c0.579-1.798,1.434-3.355,2.565-4.674   c1.131-1.318,2.53-2.355,4.197-3.111s3.597-1.134,5.791-1.134c2.107,0,3.956,0.359,5.545,1.078c1.589,0.72,3.022,1.771,4.302,3.153   L279.101,82.565z"/>
	<path class="st6" d="M306.28,104.442h-8.81V64.145h8.81V104.442z"/>
	<path class="st6" d="M319.676,78.859c0.519-0.517,1.054-0.996,1.606-1.438s1.145-0.815,1.775-1.12   c0.63-0.304,1.312-0.544,2.047-0.719c0.734-0.176,1.533-0.263,2.396-0.263c1.468,0,2.769,0.271,3.899,0.815   c1.132,0.544,2.086,1.3,2.863,2.268c0.777,0.969,1.364,2.121,1.763,3.458c0.396,1.337,0.596,2.789,0.596,4.355v18.227h-8.032   V86.215c0-1.4-0.303-2.493-0.907-3.277c-0.604-0.783-1.494-1.175-2.669-1.175c-0.881,0-1.706,0.198-2.475,0.594   c-0.769,0.397-1.516,0.937-2.241,1.618v20.467h-8.032V75.761h4.975c1.002,0,1.658,0.479,1.97,1.438L319.676,78.859z"/>
	<path class="st6" d="M358.879,82.039c-0.207,0.351-0.428,0.6-0.661,0.746c-0.232,0.148-0.53,0.222-0.894,0.222   c-0.38,0-0.76-0.087-1.14-0.263c-0.381-0.175-0.791-0.364-1.231-0.567c-0.44-0.202-0.937-0.392-1.489-0.566   c-0.554-0.175-1.184-0.263-1.892-0.263c-1.02,0-1.801,0.207-2.345,0.622c-0.545,0.415-0.816,0.991-0.816,1.729   c0,0.535,0.177,0.978,0.531,1.327c0.354,0.351,0.824,0.66,1.412,0.927c0.587,0.268,1.252,0.521,1.995,0.761   c0.742,0.24,1.503,0.508,2.28,0.802c0.777,0.296,1.537,0.642,2.28,1.037c0.742,0.397,1.407,0.886,1.995,1.466   c0.587,0.581,1.058,1.286,1.412,2.116c0.354,0.83,0.531,1.825,0.531,2.987c0,1.42-0.242,2.729-0.726,3.927   c-0.484,1.199-1.205,2.231-2.164,3.098c-0.959,0.867-2.142,1.54-3.55,2.02s-3.027,0.719-4.858,0.719   c-0.916,0-1.831-0.093-2.746-0.276c-0.916-0.185-1.801-0.433-2.656-0.747c-0.854-0.313-1.646-0.687-2.371-1.12   c-0.726-0.433-1.347-0.898-1.865-1.396l1.865-3.153c0.208-0.368,0.471-0.658,0.791-0.871c0.319-0.212,0.729-0.317,1.23-0.317   c0.467,0,0.885,0.11,1.257,0.331c0.371,0.222,0.772,0.462,1.205,0.72c0.432,0.258,0.937,0.498,1.516,0.719   c0.578,0.222,1.309,0.332,2.189,0.332c0.622,0,1.148-0.069,1.58-0.207c0.432-0.139,0.777-0.327,1.037-0.567   c0.259-0.239,0.448-0.507,0.569-0.802s0.182-0.6,0.182-0.913c0-0.571-0.182-1.041-0.544-1.41c-0.363-0.369-0.838-0.687-1.425-0.954   c-0.588-0.268-1.257-0.517-2.009-0.747c-0.751-0.23-1.516-0.493-2.293-0.788s-1.542-0.65-2.293-1.065   c-0.751-0.414-1.421-0.94-2.008-1.576c-0.588-0.636-1.062-1.415-1.426-2.337c-0.362-0.922-0.544-2.037-0.544-3.347   c0-1.217,0.221-2.374,0.661-3.471s1.101-2.061,1.982-2.891c0.881-0.829,1.985-1.488,3.316-1.978   c1.33-0.488,2.885-0.732,4.664-0.732c0.967,0,1.904,0.092,2.811,0.276c0.907,0.185,1.758,0.442,2.553,0.774   c0.794,0.332,1.52,0.724,2.177,1.176c0.656,0.451,1.234,0.944,1.735,1.479L358.879,82.039z"/>
	<path class="st6" d="M374.504,104.884c-1.279,0-2.406-0.198-3.382-0.595s-1.797-0.958-2.462-1.687s-1.17-1.608-1.516-2.642   c-0.346-1.032-0.518-2.185-0.518-3.457V81.68h-2.28c-0.415,0-0.77-0.143-1.062-0.429c-0.294-0.286-0.44-0.706-0.44-1.259v-3.347   l4.275-0.885l1.58-6.997c0.208-0.886,0.795-1.328,1.763-1.328h4.197v8.38h6.659v5.864h-6.659v14.243   c0,0.664,0.15,1.213,0.453,1.646c0.302,0.434,0.738,0.65,1.309,0.65c0.294,0,0.54-0.032,0.738-0.097s0.371-0.139,0.519-0.222   c0.146-0.083,0.285-0.156,0.414-0.222c0.13-0.063,0.281-0.097,0.454-0.097c0.241,0,0.436,0.061,0.583,0.18   c0.146,0.12,0.298,0.31,0.453,0.567l2.436,4.065c-1.036,0.83-2.202,1.452-3.498,1.867   C377.225,104.677,375.886,104.884,374.504,104.884z"/>
	<path class="st6" d="M392.303,80.186c0.83-1.549,1.784-2.766,2.863-3.65c1.08-0.885,2.319-1.328,3.719-1.328   c1.209,0,2.193,0.305,2.954,0.913l-0.519,6.306c-0.087,0.406-0.229,0.683-0.428,0.83s-0.471,0.221-0.816,0.221   c-0.138,0-0.319-0.009-0.544-0.027c-0.225-0.018-0.458-0.041-0.699-0.069c-0.242-0.027-0.488-0.055-0.738-0.083   c-0.251-0.027-0.479-0.041-0.688-0.041c-1.175,0-2.111,0.332-2.811,0.995c-0.7,0.664-1.292,1.586-1.775,2.767v17.424h-8.032V75.761   h4.768c0.397,0,0.729,0.037,0.997,0.11c0.269,0.074,0.493,0.189,0.674,0.346c0.182,0.157,0.319,0.364,0.415,0.622   c0.095,0.259,0.177,0.572,0.246,0.94L392.303,80.186z"/>
	<path class="st6" d="M428.655,75.761v28.681h-4.975c-1.002,0-1.658-0.479-1.969-1.438l-0.467-1.659   c-0.519,0.535-1.054,1.019-1.606,1.452s-1.145,0.802-1.774,1.106c-0.631,0.304-1.313,0.543-2.048,0.719   c-0.734,0.175-1.533,0.263-2.396,0.263c-1.468,0-2.769-0.272-3.899-0.815c-1.132-0.544-2.086-1.305-2.863-2.282   c-0.777-0.977-1.364-2.13-1.762-3.457s-0.596-2.784-0.596-4.37V75.761h8.032v18.198c0,1.42,0.302,2.517,0.906,3.291   s1.494,1.162,2.669,1.162c0.881,0,1.706-0.198,2.475-0.595s1.516-0.936,2.241-1.618V75.761H428.655z"/>
	<path class="st6" d="M453.841,82.565c-0.242,0.313-0.476,0.562-0.699,0.747c-0.226,0.184-0.545,0.276-0.959,0.276   c-0.397,0-0.756-0.102-1.075-0.305c-0.32-0.202-0.679-0.429-1.075-0.678c-0.397-0.249-0.864-0.475-1.399-0.678   c-0.536-0.202-1.201-0.304-1.995-0.304c-0.984,0-1.836,0.193-2.553,0.581c-0.717,0.387-1.309,0.94-1.774,1.659   c-0.467,0.719-0.812,1.6-1.036,2.642c-0.226,1.042-0.337,2.217-0.337,3.526c0,2.747,0.496,4.858,1.489,6.333   c0.993,1.476,2.362,2.213,4.107,2.213c0.933,0,1.671-0.125,2.215-0.373c0.544-0.249,1.006-0.526,1.387-0.83   c0.38-0.305,0.729-0.585,1.049-0.844c0.319-0.258,0.722-0.387,1.205-0.387c0.639,0,1.123,0.248,1.451,0.746l2.332,3.07   c-0.829,1.015-1.702,1.839-2.617,2.476c-0.916,0.636-1.853,1.134-2.812,1.493c-0.958,0.359-1.922,0.608-2.889,0.747   c-0.968,0.138-1.909,0.207-2.824,0.207c-1.642,0-3.209-0.332-4.703-0.995c-1.494-0.664-2.808-1.628-3.938-2.891   c-1.132-1.263-2.03-2.816-2.694-4.66c-0.665-1.844-0.998-3.945-0.998-6.306c0-2.065,0.289-3.997,0.868-5.795   c0.578-1.798,1.434-3.355,2.565-4.674c1.131-1.318,2.53-2.355,4.197-3.111s3.598-1.134,5.791-1.134   c2.107,0,3.956,0.359,5.545,1.078c1.589,0.72,3.022,1.771,4.302,3.153L453.841,82.565z"/>
	<path class="st6" d="M488.354,104.442h-8.032V81.68h-11.245v14.243c0,0.664,0.15,1.213,0.453,1.646   c0.302,0.434,0.738,0.65,1.309,0.65c0.294,0,0.54-0.032,0.738-0.097s0.371-0.139,0.519-0.222c0.146-0.083,0.285-0.156,0.414-0.222   c0.13-0.063,0.281-0.097,0.454-0.097c0.241,0,0.436,0.061,0.583,0.18c0.146,0.12,0.298,0.31,0.453,0.567l2.436,4.065   c-1.036,0.83-2.202,1.452-3.498,1.867c-1.295,0.415-2.634,0.622-4.016,0.622c-1.279,0-2.406-0.198-3.382-0.595   s-1.797-0.958-2.462-1.687s-1.17-1.608-1.516-2.642c-0.346-1.032-0.518-2.185-0.518-3.457V81.68h-2.28   c-0.415,0-0.77-0.143-1.062-0.429c-0.294-0.286-0.44-0.706-0.44-1.259v-3.347l4.275-0.913l1.58-6.969   c0.208-0.886,0.795-1.328,1.763-1.328h4.197v8.38h19.277V104.442z M489.468,67.878c0,0.683-0.13,1.328-0.389,1.937   s-0.613,1.139-1.062,1.59c-0.449,0.452-0.972,0.807-1.567,1.065c-0.596,0.258-1.23,0.387-1.904,0.387   c-0.657,0-1.27-0.129-1.84-0.387c-0.57-0.259-1.075-0.613-1.516-1.065c-0.44-0.451-0.786-0.981-1.036-1.59   c-0.251-0.608-0.376-1.254-0.376-1.937c0-0.682,0.125-1.332,0.376-1.949c0.25-0.618,0.596-1.152,1.036-1.604   c0.44-0.452,0.945-0.811,1.516-1.079c0.57-0.267,1.183-0.401,1.84-0.401c0.674,0,1.309,0.134,1.904,0.401   c0.596,0.268,1.118,0.627,1.567,1.079c0.449,0.452,0.804,0.986,1.062,1.604C489.338,66.546,489.468,67.197,489.468,67.878z"/>
	<path class="st6" d="M506.362,75.319c2.038,0,3.895,0.341,5.57,1.023c1.676,0.682,3.113,1.659,4.314,2.932   c1.2,1.271,2.133,2.816,2.798,4.632c0.665,1.816,0.998,3.858,0.998,6.127c0,2.286-0.333,4.347-0.998,6.181   c-0.665,1.835-1.598,3.394-2.798,4.675c-1.201,1.281-2.639,2.268-4.314,2.959s-3.532,1.037-5.57,1.037   c-2.057,0-3.926-0.346-5.61-1.037c-1.684-0.691-3.135-1.678-4.353-2.959s-2.16-2.84-2.824-4.675   c-0.665-1.834-0.998-3.895-0.998-6.181c0-2.269,0.333-4.311,0.998-6.127c0.664-1.815,1.606-3.36,2.824-4.632   c1.218-1.272,2.669-2.25,4.353-2.932C502.436,75.66,504.305,75.319,506.362,75.319z M506.362,98.523   c1.848,0,3.208-0.695,4.081-2.088c0.872-1.392,1.308-3.508,1.308-6.348c0-2.839-0.436-4.95-1.308-6.333   c-0.873-1.383-2.233-2.074-4.081-2.074c-1.9,0-3.291,0.691-4.172,2.074s-1.321,3.494-1.321,6.333c0,2.84,0.44,4.956,1.321,6.348   C503.07,97.828,504.461,98.523,506.362,98.523z"/>
	<path class="st6" d="M531.494,78.859c0.519-0.517,1.054-0.996,1.606-1.438s1.145-0.815,1.775-1.12   c0.63-0.304,1.312-0.544,2.047-0.719c0.734-0.176,1.533-0.263,2.396-0.263c1.468,0,2.769,0.271,3.899,0.815   c1.132,0.544,2.086,1.3,2.863,2.268c0.777,0.969,1.364,2.121,1.763,3.458c0.396,1.337,0.596,2.789,0.596,4.355v18.227h-8.032   V86.215c0-1.4-0.303-2.493-0.907-3.277c-0.604-0.783-1.494-1.175-2.669-1.175c-0.881,0-1.706,0.198-2.475,0.594   c-0.769,0.397-1.516,0.937-2.241,1.618v20.467h-8.032V75.761h4.975c1.002,0,1.658,0.479,1.97,1.438L531.494,78.859z"/>
</g>
<g>
	<path class="st6" d="M165.234,40.454l-5.404,15.059h-2.104l-4.388-11.486c-0.041-0.112-0.079-0.231-0.115-0.357   c-0.036-0.126-0.074-0.259-0.115-0.399c-0.04,0.14-0.081,0.273-0.121,0.399c-0.041,0.126-0.081,0.245-0.121,0.357l-4.413,11.486   h-2.104l-5.403-15.059h1.946c0.209,0,0.385,0.045,0.526,0.137c0.141,0.091,0.231,0.207,0.272,0.347l3.578,10.467   c0.056,0.189,0.111,0.393,0.163,0.609c0.052,0.217,0.103,0.449,0.151,0.694c0.056-0.245,0.115-0.479,0.175-0.699   s0.127-0.422,0.199-0.604l4.074-10.467c0.048-0.119,0.143-0.229,0.284-0.331c0.141-0.102,0.312-0.152,0.514-0.152h0.677   c0.209,0,0.379,0.045,0.508,0.137c0.129,0.091,0.226,0.207,0.29,0.347l4.062,10.467c0.073,0.182,0.139,0.378,0.2,0.588   c0.06,0.21,0.119,0.431,0.175,0.662c0.04-0.231,0.084-0.452,0.133-0.662c0.048-0.21,0.101-0.406,0.157-0.588l3.59-10.467   c0.04-0.126,0.131-0.238,0.272-0.336c0.141-0.098,0.312-0.147,0.514-0.147H165.234z"/>
	<path class="st6" d="M173.213,55.513h-2.345V40.454h2.345V55.513z"/>
	<path class="st6" d="M189.545,42.808c-0.073,0.105-0.151,0.184-0.236,0.236c-0.085,0.053-0.188,0.079-0.309,0.079   c-0.137,0-0.298-0.06-0.483-0.179s-0.417-0.25-0.695-0.394c-0.278-0.144-0.612-0.275-1.003-0.394   c-0.391-0.119-0.865-0.179-1.421-0.179c-0.524,0-0.985,0.061-1.384,0.184c-0.399,0.123-0.733,0.289-1.003,0.5   c-0.27,0.21-0.474,0.457-0.611,0.741c-0.137,0.284-0.205,0.59-0.205,0.919c0,0.42,0.119,0.769,0.356,1.046   c0.238,0.276,0.552,0.513,0.943,0.709c0.391,0.196,0.834,0.366,1.33,0.51c0.496,0.144,1.003,0.292,1.523,0.447   s1.027,0.328,1.523,0.52c0.496,0.193,0.938,0.436,1.33,0.73c0.391,0.294,0.705,0.655,0.943,1.083s0.356,0.953,0.356,1.576   c0,0.659-0.129,1.277-0.387,1.855c-0.258,0.578-0.635,1.081-1.13,1.508s-1.104,0.764-1.825,1.009   c-0.722,0.245-1.542,0.368-2.46,0.368c-1.128,0-2.151-0.177-3.07-0.531c-0.919-0.354-1.705-0.832-2.357-1.434l0.677-0.967   c0.064-0.077,0.143-0.142,0.235-0.194c0.093-0.053,0.195-0.079,0.309-0.079c0.104,0,0.224,0.037,0.356,0.11   s0.284,0.167,0.453,0.278c0.169,0.112,0.363,0.235,0.581,0.368c0.217,0.133,0.465,0.256,0.743,0.368   c0.278,0.112,0.594,0.205,0.949,0.278c0.354,0.074,0.753,0.11,1.197,0.11c0.556,0,1.052-0.066,1.487-0.2   c0.436-0.133,0.804-0.32,1.106-0.562s0.534-0.531,0.695-0.867c0.161-0.336,0.242-0.711,0.242-1.124c0-0.456-0.119-0.829-0.356-1.12   c-0.238-0.291-0.55-0.534-0.937-0.73c-0.387-0.196-0.83-0.363-1.33-0.5c-0.5-0.136-1.008-0.276-1.523-0.42s-1.023-0.31-1.523-0.5   c-0.5-0.189-0.943-0.434-1.33-0.735c-0.387-0.301-0.699-0.678-0.937-1.13c-0.238-0.452-0.357-1.01-0.357-1.676   c0-0.532,0.119-1.047,0.357-1.544c0.237-0.498,0.584-0.939,1.04-1.324c0.455-0.385,1.016-0.694,1.68-0.925   c0.665-0.231,1.429-0.347,2.291-0.347c0.967,0,1.848,0.133,2.642,0.399c0.793,0.267,1.493,0.652,2.097,1.156L189.545,42.808z"/>
	<path class="st6" d="M209.008,52.402c0.128,0,0.242,0.046,0.338,0.137l0.931,0.873c-0.709,0.714-1.57,1.271-2.581,1.671   c-1.011,0.399-2.234,0.599-3.669,0.599c-1.241,0-2.369-0.187-3.385-0.562c-1.016-0.375-1.882-0.9-2.599-1.576   c-0.717-0.676-1.273-1.487-1.668-2.433s-0.592-1.986-0.592-3.121c0-1.135,0.206-2.175,0.617-3.121   c0.411-0.946,0.989-1.758,1.735-2.438c0.745-0.679,1.638-1.207,2.677-1.582c1.04-0.375,2.188-0.562,3.446-0.562   c1.233,0,2.321,0.171,3.264,0.515s1.773,0.809,2.49,1.398l-0.773,0.935c-0.048,0.07-0.111,0.128-0.188,0.173   c-0.077,0.046-0.179,0.068-0.308,0.068c-0.145,0-0.322-0.068-0.532-0.205c-0.21-0.136-0.484-0.289-0.822-0.457   c-0.338-0.168-0.762-0.32-1.27-0.457s-1.132-0.205-1.874-0.205c-0.895,0-1.713,0.135-2.454,0.405   c-0.742,0.27-1.38,0.66-1.916,1.172c-0.536,0.511-0.953,1.135-1.251,1.871c-0.298,0.735-0.447,1.565-0.447,2.49   c0,0.939,0.155,1.776,0.465,2.512c0.311,0.736,0.733,1.357,1.27,1.865c0.536,0.508,1.168,0.895,1.898,1.161   c0.729,0.267,1.517,0.399,2.363,0.399c0.516,0,0.981-0.026,1.396-0.079c0.415-0.053,0.798-0.135,1.148-0.247   c0.351-0.112,0.677-0.254,0.979-0.426c0.302-0.171,0.603-0.376,0.901-0.615C208.734,52.455,208.871,52.402,209.008,52.402z"/>
	<path class="st6" d="M231.711,47.989c0,1.128-0.206,2.163-0.617,3.105s-0.991,1.753-1.741,2.433c-0.75,0.68-1.65,1.207-2.702,1.582   c-1.052,0.375-2.214,0.562-3.487,0.562c-1.274,0-2.434-0.188-3.482-0.562c-1.048-0.375-1.946-0.902-2.696-1.582   c-0.75-0.679-1.33-1.49-1.741-2.433s-0.617-1.977-0.617-3.105c0-1.128,0.206-2.163,0.617-3.105   c0.411-0.942,0.991-1.755,1.741-2.438s1.648-1.213,2.696-1.592s2.208-0.567,3.482-0.567c1.273,0,2.436,0.189,3.487,0.567   s1.953,0.909,2.702,1.592s1.33,1.496,1.741,2.438C231.506,45.826,231.711,46.861,231.711,47.989z M229.305,47.989   c0-0.925-0.145-1.755-0.436-2.49c-0.29-0.736-0.701-1.357-1.233-1.866c-0.532-0.508-1.177-0.898-1.934-1.171   c-0.758-0.273-1.604-0.41-2.539-0.41c-0.927,0-1.77,0.137-2.527,0.41c-0.758,0.273-1.404,0.664-1.94,1.171   c-0.536,0.508-0.949,1.13-1.239,1.866c-0.29,0.735-0.436,1.565-0.436,2.49s0.146,1.753,0.436,2.485   c0.29,0.732,0.703,1.352,1.239,1.86c0.536,0.508,1.183,0.896,1.94,1.167c0.757,0.27,1.6,0.404,2.527,0.404   c0.935,0,1.781-0.135,2.539-0.404c0.757-0.27,1.402-0.659,1.934-1.167c0.532-0.508,0.943-1.128,1.233-1.86   C229.16,49.742,229.305,48.913,229.305,47.989z"/>
	<path class="st6" d="M252.141,40.454v15.059h-1.172c-0.186,0-0.341-0.028-0.466-0.084s-0.248-0.151-0.369-0.284l-10.021-11.35   c0.016,0.175,0.028,0.347,0.036,0.515c0.008,0.168,0.012,0.326,0.012,0.473v10.729h-2.055V40.454h1.209   c0.104,0,0.193,0.005,0.266,0.016c0.073,0.011,0.137,0.028,0.193,0.053c0.057,0.024,0.113,0.06,0.169,0.105   c0.056,0.046,0.117,0.104,0.181,0.173l10.022,11.339c-0.016-0.182-0.03-0.359-0.042-0.53c-0.012-0.172-0.018-0.334-0.018-0.489   V40.454H252.141z"/>
	<path class="st6" d="M268.473,42.808c-0.073,0.105-0.151,0.184-0.236,0.236c-0.085,0.053-0.188,0.079-0.309,0.079   c-0.137,0-0.298-0.06-0.483-0.179s-0.417-0.25-0.695-0.394c-0.278-0.144-0.612-0.275-1.003-0.394   c-0.391-0.119-0.865-0.179-1.421-0.179c-0.524,0-0.985,0.061-1.384,0.184c-0.399,0.123-0.733,0.289-1.003,0.5   c-0.27,0.21-0.474,0.457-0.611,0.741c-0.137,0.284-0.205,0.59-0.205,0.919c0,0.42,0.119,0.769,0.356,1.046   c0.238,0.276,0.552,0.513,0.943,0.709c0.391,0.196,0.834,0.366,1.33,0.51c0.496,0.144,1.003,0.292,1.523,0.447   s1.027,0.328,1.523,0.52c0.496,0.193,0.938,0.436,1.33,0.73c0.391,0.294,0.705,0.655,0.943,1.083s0.356,0.953,0.356,1.576   c0,0.659-0.129,1.277-0.387,1.855c-0.258,0.578-0.635,1.081-1.13,1.508s-1.104,0.764-1.825,1.009   c-0.722,0.245-1.542,0.368-2.46,0.368c-1.128,0-2.151-0.177-3.07-0.531c-0.919-0.354-1.705-0.832-2.357-1.434l0.677-0.967   c0.064-0.077,0.143-0.142,0.235-0.194c0.093-0.053,0.195-0.079,0.309-0.079c0.104,0,0.224,0.037,0.356,0.11   s0.284,0.167,0.453,0.278c0.169,0.112,0.363,0.235,0.581,0.368c0.217,0.133,0.465,0.256,0.743,0.368   c0.278,0.112,0.594,0.205,0.949,0.278c0.354,0.074,0.753,0.11,1.197,0.11c0.556,0,1.052-0.066,1.487-0.2   c0.436-0.133,0.804-0.32,1.106-0.562s0.534-0.531,0.695-0.867c0.161-0.336,0.242-0.711,0.242-1.124c0-0.456-0.119-0.829-0.356-1.12   c-0.238-0.291-0.55-0.534-0.937-0.73c-0.387-0.196-0.83-0.363-1.33-0.5c-0.5-0.136-1.008-0.276-1.523-0.42s-1.023-0.31-1.523-0.5   c-0.5-0.189-0.943-0.434-1.33-0.735c-0.387-0.301-0.699-0.678-0.937-1.13c-0.238-0.452-0.357-1.01-0.357-1.676   c0-0.532,0.119-1.047,0.357-1.544c0.237-0.498,0.584-0.939,1.04-1.324c0.455-0.385,1.016-0.694,1.68-0.925   c0.665-0.231,1.429-0.347,2.291-0.347c0.967,0,1.848,0.133,2.642,0.399c0.793,0.267,1.493,0.652,2.097,1.156L268.473,42.808z"/>
	<path class="st6" d="M278.12,55.513h-2.346V40.454h2.346V55.513z"/>
	<path class="st6" d="M299.627,40.454v15.059h-1.173c-0.186,0-0.341-0.028-0.466-0.084s-0.248-0.151-0.368-0.284l-10.022-11.35   c0.017,0.175,0.028,0.347,0.036,0.515c0.009,0.168,0.013,0.326,0.013,0.473v10.729h-2.056V40.454h1.209   c0.104,0,0.193,0.005,0.267,0.016c0.072,0.011,0.137,0.028,0.193,0.053c0.056,0.024,0.112,0.06,0.169,0.105   c0.057,0.046,0.117,0.104,0.182,0.173l10.021,11.339c-0.017-0.182-0.03-0.359-0.042-0.53c-0.013-0.172-0.019-0.334-0.019-0.489   V40.454H299.627z"/>
	<path class="st6" d="M331.347,47.989c0,1.128-0.205,2.154-0.616,3.079s-0.991,1.717-1.741,2.375   c-0.749,0.659-1.649,1.168-2.701,1.529s-2.215,0.541-3.488,0.541h-6.468V40.454h6.468c1.273,0,2.437,0.181,3.488,0.541   c1.052,0.361,1.952,0.873,2.701,1.535c0.75,0.662,1.33,1.455,1.741,2.38S331.347,46.861,331.347,47.989z M328.942,47.989   c0-0.925-0.146-1.751-0.436-2.48s-0.701-1.345-1.233-1.85c-0.531-0.504-1.177-0.89-1.934-1.156   c-0.758-0.266-1.604-0.399-2.539-0.399h-4.122v11.759h4.122c0.935,0,1.781-0.133,2.539-0.399c0.757-0.266,1.402-0.649,1.934-1.15   c0.532-0.501,0.943-1.116,1.233-1.845C328.796,49.74,328.942,48.913,328.942,47.989z"/>
	<path class="st6" d="M348.454,53.853l-0.013,1.66h-10.675V40.454h10.675v1.66h-8.329v5.002h6.745v1.597h-6.745v5.139H348.454z"/>
	<path class="st6" d="M359.89,40.454c1.096,0,2.049,0.11,2.858,0.331c0.811,0.221,1.481,0.534,2.014,0.94   c0.531,0.406,0.929,0.897,1.19,1.471c0.262,0.575,0.393,1.216,0.393,1.923c0,0.701-0.141,1.342-0.423,1.923   c-0.282,0.582-0.695,1.083-1.239,1.503s-1.217,0.748-2.019,0.982c-0.803,0.235-1.728,0.352-2.774,0.352h-2.78v5.633h-2.334V40.454   H359.89z M359.89,48.262c0.669,0,1.259-0.077,1.771-0.231c0.512-0.154,0.943-0.369,1.294-0.646s0.614-0.608,0.792-0.993   c0.177-0.385,0.266-0.809,0.266-1.271c0-0.96-0.341-1.709-1.021-2.249s-1.715-0.809-3.101-0.809h-2.78v6.2H359.89z"/>
	<path class="st6" d="M385.216,55.513h-1.813c-0.21,0-0.379-0.045-0.508-0.137c-0.129-0.091-0.226-0.207-0.29-0.347l-1.62-3.636   h-7.772l-1.62,3.636c-0.049,0.126-0.142,0.238-0.278,0.336s-0.307,0.147-0.508,0.147h-1.813l6.928-15.059h2.369L385.216,55.513z    M380.332,49.922l-2.72-6.126c-0.081-0.182-0.166-0.394-0.254-0.636c-0.089-0.242-0.174-0.499-0.254-0.772   c-0.17,0.567-0.343,1.041-0.521,1.419l-2.72,6.116H380.332z"/>
	<path class="st6" d="M403.35,55.513h-2.079c-0.428,0-0.742-0.144-0.943-0.431l-4.497-5.381c-0.137-0.168-0.284-0.289-0.441-0.362   c-0.157-0.074-0.4-0.11-0.731-0.11h-1.776v6.284h-2.334V40.454h4.896c1.096,0,2.043,0.096,2.841,0.289s1.457,0.471,1.977,0.835   s0.904,0.804,1.154,1.319c0.25,0.515,0.375,1.091,0.375,1.729c0,0.533-0.097,1.03-0.29,1.492s-0.474,0.877-0.84,1.246   c-0.367,0.368-0.814,0.681-1.343,0.94c-0.527,0.259-1.126,0.456-1.795,0.588c0.298,0.147,0.557,0.361,0.773,0.641L403.35,55.513z    M395.347,47.747c0.677,0,1.275-0.072,1.795-0.215s0.955-0.347,1.306-0.609s0.614-0.576,0.792-0.94   c0.177-0.364,0.266-0.768,0.266-1.208c0-0.897-0.338-1.573-1.016-2.028c-0.677-0.456-1.692-0.683-3.046-0.683h-2.562v5.685H395.347   z"/>
	<path class="st6" d="M419.887,42.167h-5.609v13.346h-2.333V42.167h-5.622v-1.713h13.564V42.167z"/>
	<path class="st6" d="M443.522,40.454v15.059h-2.056V44.447c0-0.147,0.006-0.305,0.019-0.473c0.012-0.168,0.025-0.34,0.042-0.515   l-5.947,9.416c-0.186,0.315-0.468,0.473-0.847,0.473h-0.339c-0.379,0-0.66-0.157-0.846-0.473l-6.068-9.458   c0.048,0.372,0.072,0.715,0.072,1.03v11.066h-2.056V40.454h1.729c0.209,0,0.37,0.018,0.483,0.053   c0.112,0.035,0.222,0.133,0.326,0.294l5.984,9.269c0.097,0.168,0.191,0.343,0.284,0.525c0.092,0.182,0.179,0.368,0.26,0.557   c0.08-0.189,0.165-0.376,0.254-0.562c0.088-0.186,0.185-0.363,0.29-0.531l5.875-9.258c0.097-0.161,0.203-0.259,0.32-0.294   s0.28-0.053,0.489-0.053H443.522z"/>
	<path class="st6" d="M461.679,53.853l-0.013,1.66h-10.675V40.454h10.675v1.66h-8.329v5.002h6.745v1.597h-6.745v5.139H461.679z"/>
	<path class="st6" d="M482.036,40.454v15.059h-1.173c-0.186,0-0.341-0.028-0.466-0.084s-0.248-0.151-0.368-0.284l-10.022-11.35   c0.017,0.175,0.028,0.347,0.036,0.515c0.009,0.168,0.013,0.326,0.013,0.473v10.729H468V40.454h1.209   c0.104,0,0.193,0.005,0.267,0.016c0.072,0.011,0.137,0.028,0.193,0.053c0.056,0.024,0.112,0.06,0.169,0.105   c0.057,0.046,0.117,0.104,0.182,0.173l10.021,11.339c-0.017-0.182-0.03-0.359-0.042-0.53c-0.013-0.172-0.019-0.334-0.019-0.489   V40.454H482.036z"/>
	<path class="st6" d="M501.222,42.167h-5.609v13.346h-2.333V42.167h-5.622v-1.713h13.564V42.167z"/>
	<path class="st6" d="M531.347,47.989c0,1.128-0.205,2.163-0.616,3.105s-0.991,1.753-1.741,2.433   c-0.749,0.68-1.649,1.207-2.701,1.582c-1.052,0.375-2.215,0.562-3.488,0.562s-2.434-0.188-3.481-0.562   c-1.048-0.375-1.946-0.902-2.695-1.582c-0.75-0.679-1.33-1.49-1.741-2.433s-0.616-1.977-0.616-3.105   c0-1.128,0.205-2.163,0.616-3.105c0.411-0.942,0.991-1.755,1.741-2.438c0.749-0.683,1.647-1.213,2.695-1.592   s2.208-0.567,3.481-0.567s2.437,0.189,3.488,0.567s1.952,0.909,2.701,1.592c0.75,0.683,1.33,1.496,1.741,2.438   C531.142,45.826,531.347,46.861,531.347,47.989z M528.942,47.989c0-0.925-0.146-1.755-0.436-2.49   c-0.29-0.736-0.701-1.357-1.232-1.866c-0.532-0.508-1.177-0.898-1.935-1.171c-0.758-0.273-1.604-0.41-2.539-0.41   c-0.927,0-1.769,0.137-2.526,0.41c-0.758,0.273-1.404,0.664-1.94,1.171c-0.536,0.508-0.949,1.13-1.239,1.866   c-0.29,0.735-0.435,1.565-0.435,2.49s0.145,1.753,0.435,2.485c0.29,0.732,0.703,1.352,1.239,1.86   c0.536,0.508,1.183,0.896,1.94,1.167c0.758,0.27,1.6,0.404,2.526,0.404c0.936,0,1.781-0.135,2.539-0.404   c0.758-0.27,1.402-0.659,1.935-1.167c0.531-0.508,0.942-1.128,1.232-1.86C528.796,49.742,528.942,48.913,528.942,47.989z"/>
	<path class="st6" d="M540.087,42.114v5.265h7.12v1.66h-7.12v6.474h-2.346V40.454h10.675v1.66H540.087z"/>
</g>
</svg>