<svg viewBox="0 0 400.82 64.53" xmlns="http://www.w3.org/2000/svg"><path d="m0 0h64.53v64.53h-64.53z" fill="#fff"/><path d="m38.45 4.47c1.52-2.71 2.17-.9 2.17-.9 1.73-1.94.88 1.27.88 1.27 1.36-1.68.78.6.78.6-.78.9-4.41 10.79-4.41 10.79l-1.21 1.36a10.09 10.09 0 0 1 -1.85 4.66l.84-4-1.65 5.11-.58.18c-.05-2.59-.67.19-.67.19-.28.84-1.21-.13-1.21-.13l-.54-1.53-.3.74c-.08-1.29-2.15-4-2.15-4a20 20 0 0 1 -1.41-3c-2.82-9.6-1.5-8-1.5-8-.72-2.3.36-2.45.36-2.45-.65-1.81-.1-2.18-.1-2.18.48-.17 1.36 1.21 1.36 1.21-.38-2 1.07-1 1.07-1a27.84 27.84 0 0 1 -.06-3.39h-28.27v64.53h13.57c-6.11-2-10.82-6.11-11.79-8.39-1.25-3.93 7.12-5.07 14.89-7.27 2.64-.68 9.7-2.52 11.1-3.13-3.95-.87-10.48-2.24-10.41-5.74a6.56 6.56 0 0 1 .64-2.51c-.48.14-3.91 1.24-4.1 1.27s-.18 0-.18-.14.07-.19.64-.47c3.18-1.64 4.42-2.4 7.47-4-4.43.69-10.36 1.73-15 2.91 0 0-5.86 1.7.77-1.61 0 0-6.22 2.66-1.45-.39 0 0 .58-.88-.92-.18 0 0 0-2 9.14-3.95h-2s.85-1.11 6.23-2.65c0 0-3.42-.93-5.27-.57 0 0-.94-.28-.22-.88 0 0-2.48.15-.49-.63a11.83 11.83 0 0 0 -2.76.28s-2.55.35-.33-.95c0 0-3.88.83-.9-.77a1.78 1.78 0 0 1 .95-.76s-4.16.28-.47-1.23c0 0-2.94-.39-2.79-1.41 0 0-2.75-.43.08-.91 0 0 .62-.59-.56-1.13 0 0-2.53-.95 3-1.21 0 0-8.37-2.05-7.57-2.76 0 0-2.74-1 .19-.82 0 0-.74-1-.12-.88 0 0-4.4-2.19 3.46-1h1.3s-.33-1 .37-1c0 0-5.31-1.56 3.43-1.17 0 0-.26-1.16 1.4-.69 0 0 .48-.87 2.3.68 0 0 2.2 1.5 2.58 1.34l-.66-1.1s-.91-1.58 1.09-.85c0 0 .7-.7 2 .32a27.67 27.67 0 0 1 11.44 13.02s.65 1.11-.48.87c0 0 1.69 2.16-.6.78l-.21.63-1.55-.39 1.79 1.16-.82.61a1.34 1.34 0 0 1 .81.79s2.17 1.3.61 1.51a.92.92 0 0 0 .48.63s1.78.56-1.06.95l-.15.66a8.6 8.6 0 0 1 5 .52 1.25 1.25 0 0 1 .6.49c.28.41-1.82 1.13-2.53 1.47-1.76.76-3.94 1.12-11.06 2.69a3.3 3.3 0 0 0 -.22 1.27c0 2.49 4.34 3.8 8.54 4.87 2.85.7 3.17.76 3.2 1.16s-.13.49-4 2.58c-2.32 1.26-2.59 1.43-3.75 2-1.89.48-10.45 2.31-12.14 2.62-6 1.42-7.13 2.25-6.82 4.19 1.17 5.1 13.06 8.74 19.21 7.33a28 28 0 0 0 8.25-2.53c1.42-.62 1.61-.73 1.89-.82s.3 0 .28 0a2 2 0 0 1 -.51.45c-.2.13-3.66 2.31-7.26 4.49q-.47.17-.93.3h37.91v-34a45.84 45.84 0 0 1 -5.06-.48s2.08 1.31-7.57.14l7.45 1.17s3.21.86-2 .58c0 0 3.32 1.64-.66 1.09 0 0-7.76-1.23-10.28-.68 0 0-.91-.88-1.39-.71 0 0 .59-.08.77-.91 0 0-2.9 0 .08-.9l.41-.66s-2.38.13-.39-1.35a5.1 5.1 0 0 1 2.24-.4 1 1 0 0 1 .5-1.47l-5.78 3.1v-.6l5.63-3.4-6.48 3.26 2-2.18-1.76 1s5.61-5.67 18.55-8.15c0 0 4.16-.28.54 1 0 0-1.61.62 1.52.19 0 0 .73-.12 1.74-.25v-19.87h-25.39c-.2 2.18-.75 4.47-.75 4.47zm4.45 28a6.88 6.88 0 0 1 3.1.33s6.55 3.29 7.3 5.18c0 0 5.22 6 .91 3.67l1.06 1.86-1.32-.82s.73 1.69-2.18-.6c0 0 6.61 7.38 4.31 8.09 0 0-.29 0-.86-.48l-.59.08s2.12 3.81-2.72-.92l5.2 9.14s.53 3.12-2.38-1.37c0 0 1.42 2.3.17 2 0 0 1.37 2.71-.84.42 0 0-.28 1.63-4.15-6.22 0 0-.44.46-1.13-.95l-.3.74s.91 3-1.22.57c0 0-.53.47-2.35-3.27 0 0-.41-.84-.82-.89 0 0 1.25 4.73 2 6.81 0 0 1.51 3.69-1.31 1.29a2.15 2.15 0 0 0 0 1.2s-.05 1.8-1.42-.21c0 0-1 .24-2.57-4.14l-6-16.75s-.53-2.42-.12-2.38c0 0-.76-3.29 1.1-.65 0 0 0-1.5 1-.74 0 0 .69-.09.84.29l.84-.42s1.63 1 2.07.52l-.1-.69s-2.57-2 .43-1.26l1.08-.15zm4.85-27.19s1.45-1.1 1 .16c0 0 3.37-1 1.23.93 0 0 1.41-.6.46 1.14 0 0 6-5.82 7.6-4.25 0 0 3-.52.44 1h1l-1 .93s.21.87-4.41 5.71c0 0 1.83-1.16 1.82.15 0 0 2.82-2 1.78.65 0 0 1.93.23.11 1.48 0 0-9.92 7.06-12.63 10.53l-1 .44s-2.43 3.43-1 .14l-1.15.57 1.65-2.53-2.15 1.8a3.19 3.19 0 0 0 -1.17 1s-1.7 1.43-.41-.85c0 0-2.69 2.27.18-1.52s-1.13.45-1.13.45-1.32 1.29 1.44-2.59l.13-1.22-.72.6s-.71-.1-.14-1.78c0 0-2.17 3.8-3.77 6 0 0-.09-1.39-.71-.8 0 0 2.38-5.23 2.38-5.93-.04-.02 7.07-11.49 10.17-12.21z" fill="#7f3035"/><path d="m64.53 25.8v-.25l-.36.15z" fill="#803037"/><path d="m87.88 34.93h-7.16v-10.2h6.22v-3.57h-6.22v-8.95h6.8v-3.58h-10.64v29.88h11z"/><path d="m100.85 19.77a3.75 3.75 0 0 0 -3.08-1.61c-3.4 0-5.77 4.29-5.77 10.51 0 6.67 2.72 10.16 5.59 10.16a3.72 3.72 0 0 0 3.17-1.83h.09v1.52h3.49v-29.89h-3.49zm0 13.69a2.72 2.72 0 0 1 -2.46 1.88c-1.79 0-2.82-2.28-2.82-6.58 0-4.61 1.12-7.29 3-7.29a2.52 2.52 0 0 1 2.28 2z"/><path d="m119.91 38.51v-19.81h-3.49v14.67c-.63 1.52-1.66 2.33-2.73 2.33s-1.88-.77-1.88-2.82v-14.18h-3.49v14.44c0 3.85 2.06 5.69 4.48 5.69 1.52 0 2.45-.63 3.53-2.46h.09v2.14z"/><path d="m127.37 28.67c0-4.43 1.57-7.2 4.08-7.2a4.47 4.47 0 0 1 2.59 1v-3.6a7.71 7.71 0 0 0 -3.13-.71c-4.16 0-7.11 4.43-7.11 10.6 0 5.95 3 10.29 7.11 10.29a6 6 0 0 0 3.44-1.05v-3.38a3.8 3.8 0 0 1 -2.55 1.12c-2.73 0-4.43-2.74-4.43-7.07z"/><path d="m149.2 34.84c-.66.63-1.16 1-1.38 1s-.54-.27-.54-1.16v-11.2a5.09 5.09 0 0 0 -5.28-5.32c-1.88 0-3.22.63-5.28 2.55v4c2.06-2.32 3.54-3.26 5-3.26s2 .85 2 2.59v1.88c-5.45 3.22-7.56 4.84-7.56 8.1 0 2.68 1.79 5 3.89 5 1.3 0 2.51-.85 3.81-2.6.4 1.66 1.29 2.51 2.55 2.51.76 0 1.52-.4 2.72-1.48zm-5.41-1.38c-.62 1.47-1.52 2.28-2.41 2.28s-1.7-.9-1.7-2.24c0-1.79 1.25-3.4 4.11-5.14z"/><path d="m159.45 35.2a4.5 4.5 0 0 1 -1.88.54c-1.12 0-1.39-.76-1.39-2.68v-11.32h3.27v-3h-3.27v-5.14h-.31a70.32 70.32 0 0 1 -5.46 7.82v.32h2.28v12.88c0 3.22 1.39 4.43 3.67 4.43a7.36 7.36 0 0 0 3.09-.76z"/><path d="m167.63 18.16c-3.85 0-6.22 4-6.22 10.47s2.37 10.42 6.22 10.42 6.22-4 6.22-10.42-2.37-10.47-6.22-10.47zm.05 17.58c-1.79 0-2.69-2.46-2.69-7.11s.9-7.16 2.6-7.16 2.68 2.46 2.68 7.16-.89 7.11-2.59 7.11z"/><path d="m181.18 24.06h-.09v-5.36h-3.48v19.81h3.48v-7.87c0-2.28 1.08-8.59 3.76-8.59a2.59 2.59 0 0 1 1.52.49l.27-3.58a3 3 0 0 0 -1.79-.58c-1.65 0-2.28.94-3.67 5.68z"/><path d="m191.2 22.81a1.34 1.34 0 0 1 1.39-1.47 4.81 4.81 0 0 1 3 1.38v-3.31a5.38 5.38 0 0 0 -3.31-1.25 4.34 4.34 0 0 0 -4.3 4.65c0 4.47 5 8.23 5 11.23a1.69 1.69 0 0 1 -1.75 1.7c-1.07 0-2-.58-3.44-2.15v3.85a6 6 0 0 0 3.89 1.61 4.78 4.78 0 0 0 4.74-5.1c-.03-4.74-5.22-8.28-5.22-11.14z"/><path d="m78.27 50.13c0-3.16.42-4.94 1.85-4.94a2.44 2.44 0 0 1 1.61.79v-1.64a3.27 3.27 0 0 0 -1.73-.65c-2.42 0-3.42 2.89-3.42 6.52 0 4.07 1.23 6.36 3.39 6.36a2.92 2.92 0 0 0 1.91-.71v-1.69c-.79.69-1.18.9-1.71.9-1.41 0-1.9-1.58-1.9-4.94z"/><path d="m90.47 50a3.06 3.06 0 0 0 1.29-2.69c0-1.58-.71-3.48-3.3-3.48h-1.36v12.57h1.62v-5.61c.92-.1 1.3 1 1.86 3.45l.49 2.16h1.69l-.58-2.57c-.44-1.83-.96-3.27-1.71-3.83zm-1.67-.73h-.08v-3.91c1 0 1.43.65 1.43 2s-.47 1.93-1.35 1.93z"/><path d="m99.31 50.62h2.62v-1.5h-2.62v-3.76h2.86v-1.51h-4.47v12.56h4.62v-1.51h-3.01z"/><path d="m110 43.85h-1.78v12.55h2c1.78 0 4.08-1.07 4.08-6.29.03-3.7-1.05-6.26-4.3-6.26zm.08 11h-.25v-9.49h.29c1.89 0 2.57 1.28 2.57 4.83.02 3.38-.69 4.71-2.59 4.71z"/><path d="m119.85 43.86h1.61v12.55h-1.61z"/><path d="m126.46 45.36h1.94v11.05h1.61v-11.05h1.94v-1.51h-5.49z"/><path d="m150.92 53.36c0 1.2-.56 1.71-1.18 1.71-.79 0-1.19-.71-1.19-1.79v-9.43h-1.61v9.46c0 2 1.24 3.26 2.8 3.26 1 0 2.8-.69 2.8-3.4v-9.32h-1.62z"/><path d="m162.55 51.59h-.04l-2.78-7.74h-1.31v12.56h1.48v-7.82h.04l2.78 7.82h1.31v-12.56h-1.48z"/><path d="m169.95 43.86h1.61v12.55h-1.61z"/><path d="m180.4 43.69c-2.46 0-3.37 3.38-3.37 6.44 0 4.17 1.47 6.44 3.37 6.44 1.73 0 3.36-2 3.36-6.44 0-3.44-1.13-6.44-3.36-6.44zm0 11.38c-1.09 0-1.69-1.79-1.69-4.94 0-2.26.33-4.94 1.65-4.94 1.07 0 1.69 1.78 1.69 4.94s-.6 4.94-1.63 4.94z"/><path d="m193.4 51.59h-.04l-2.78-7.74h-1.32v12.56h1.49v-7.82h.04l2.78 7.82h1.31v-12.56h-1.48z"/><path d="m198.71 41.88a2.31 2.31 0 1 0 2.35 2.29 2.32 2.32 0 0 0 -2.35-2.29zm0 4.33a2 2 0 1 1 2-2 2 2 0 0 1 -1.98 2z"/><path d="m199.24 44.24a.59.59 0 0 0 .48-.53.62.62 0 0 0 -.22-.5 1.43 1.43 0 0 0 -.8-.17 4.78 4.78 0 0 0 -.88.07v2.29h.53v-.92h.25c.29 0 .43.11.48.36a1.89 1.89 0 0 0 .18.56h.57a1.57 1.57 0 0 1 -.17-.57.66.66 0 0 0 -.42-.59zm-.62-.17h-.26v-.66h.3c.33 0 .49.13.49.34s-.24.32-.53.32z"/><path d="m215.97 8.68h1v47.94h-1z"/><path d="m234.6 34.42-1.09 2h-1.45l5.49-9.81h1.63l2.06 9.81h-1.42l-.43-2zm4.59-1.14-1.06-5.28-2.89 5.29z"/><path d="m247 29.29a3.56 3.56 0 0 1 2.36.85l-.81.93a2.75 2.75 0 0 0 -1.71-.58 3 3 0 0 0 -3.07 2.45 2 2 0 0 0 2.23 2.46 3.6 3.6 0 0 0 1.92-.58l.49.93a4.8 4.8 0 0 1 -2.66.85c-2.48 0-3.65-1.58-3.3-3.57a4.5 4.5 0 0 1 4.55-3.74z"/><path d="m255.43 32.5c.27-1.49-.32-2-1.06-2a2.93 2.93 0 0 0 -2.75 2.71l-.56 3.25h-1.36l1.78-10.13h1.36l-.78 4.52a2.79 2.79 0 0 1 2.62-1.55c1.51 0 2.52.95 2.11 3.21l-.69 4h-1.36z"/><path d="m259.53 36.45h-1.36l1.24-7h1.36zm0-9.26a.77.77 0 0 0 .79.94 1.13 1.13 0 0 0 1.1-.94.78.78 0 0 0 -.78-1 1.17 1.17 0 0 0 -1.11 1z"/><path d="m268.38 35.3a4.62 4.62 0 0 1 -3.29 1.3c-2.44 0-3.65-1.64-3.3-3.63a4.56 4.56 0 0 1 4.42-3.68c1.85 0 3.35 1.19 2.9 3.78h-6c-.29 1.36.63 2.33 2.19 2.33a4 4 0 0 0 2.45-.89zm-4.94-3.3h4.45a1.67 1.67 0 0 0 -1.89-1.52 2.84 2.84 0 0 0 -2.56 1.52z"/><path d="m273.24 36.45h-1.54l-1.47-7h1.43l1.06 5.55 3-5.51h1.43z"/><path d="m278.73 36.45h-1.36l1.23-7h1.4zm0-9.26a.76.76 0 0 0 .78.94 1.15 1.15 0 0 0 1.11-.94.78.78 0 0 0 -.79-1 1.15 1.15 0 0 0 -1.1 1z"/><path d="m286.64 32.5c.27-1.49-.32-2-1.07-2a2.93 2.93 0 0 0 -2.74 2.71l-.56 3.25h-1.36l1.23-7h1.36l-.24 1.4a2.8 2.8 0 0 1 2.62-1.55c1.52 0 2.51.95 2.12 3.21l-.69 4h-1.31z"/><path d="m296.19 36.39a4 4 0 0 1 -4.19 3.35 3.7 3.7 0 0 1 -2.83-1l.73-1.06a3.1 3.1 0 0 0 2.29.88 2.61 2.61 0 0 0 2.71-2.29l.16-.93a3.55 3.55 0 0 1 -2.76 1.27c-2.1 0-3.18-1.65-2.81-3.66a4.31 4.31 0 0 1 4.12-3.65 2.43 2.43 0 0 1 2.31 1.27l.19-1.12h1.36zm-2.68-5.9a2.81 2.81 0 0 0 -2.72 2.45c-.23 1.34.4 2.46 1.85 2.46a2.94 2.94 0 0 0 2.85-2.46 1.94 1.94 0 0 0 -1.98-2.45z"/><path d="m307.49 32.5c.26-1.49-.33-2-1.07-2s-2.1.49-2.48 2.71l-.56 3.25h-1.38l1.23-7h1.36l-.24 1.4a2.71 2.71 0 0 1 2.51-1.55 1.85 1.85 0 0 1 2 1.47 3 3 0 0 1 2.65-1.47c1.65 0 2.52.95 2.13 3.21l-.69 4h-1.35l.68-4c.27-1.49-.32-2-1.06-2s-2 .41-2.46 2.55l-.58 3.41h-1.38z"/><path d="m319.37 29.29a3 3 0 0 1 3 3.65 4.6 4.6 0 0 1 -4.34 3.66 3 3 0 0 1 -3-3.66 4.56 4.56 0 0 1 4.34-3.65zm-1.09 6.11a3 3 0 0 0 2.72-2.4 2 2 0 0 0 -1.89-2.47 3 3 0 0 0 -2.72 2.47 2 2 0 0 0 1.89 2.4z"/><path d="m325.71 31a2.49 2.49 0 0 1 2.19-1.74 1.41 1.41 0 0 1 .61.15l-.24 1.33a1.44 1.44 0 0 0 -.71-.18c-.46 0-1.82.23-2.34 3.21l-.46 2.65h-1.36l1.23-7h1.37z"/><path d="m335 35.3a4.62 4.62 0 0 1 -3.29 1.3c-2.44 0-3.65-1.64-3.3-3.63a4.56 4.56 0 0 1 4.42-3.68c1.85 0 3.35 1.19 2.9 3.78h-6c-.29 1.36.63 2.33 2.19 2.33a4 4 0 0 0 2.45-.89zm-4.92-3.3h4.45a1.67 1.67 0 0 0 -1.87-1.54 2.84 2.84 0 0 0 -2.58 1.54z"/><path d="m342.43 34.33c-.14.77.16 1.08.63 1.08a1 1 0 0 0 1-.77 1.34 1.34 0 0 0 0-.57h1.19a2.25 2.25 0 0 1 -2.39 2.53c-1.11 0-2.09-.57-1.77-2.37l.66-3.72h-1.15l.2-1.07h1.15l.64-2h1.05l-.33 2h2.22l-.19 1.07h-2.24z"/><path d="m350.6 29.29a3 3 0 0 1 3 3.65 4.59 4.59 0 0 1 -4.34 3.66 3 3 0 0 1 -3-3.66 4.57 4.57 0 0 1 4.34-3.65zm-1.09 6.11a3 3 0 0 0 2.76-2.4 2 2 0 0 0 -1.89-2.47 3 3 0 0 0 -2.76 2.47 2 2 0 0 0 1.89 2.4z"/><path d="m361.47 36.39a4 4 0 0 1 -4.23 3.35 3.7 3.7 0 0 1 -2.83-1l.73-1.06a3.11 3.11 0 0 0 2.3.88 2.61 2.61 0 0 0 2.7-2.29l.17-.93a3.55 3.55 0 0 1 -2.76 1.27c-2.1 0-3.18-1.65-2.82-3.66a4.31 4.31 0 0 1 4.12-3.65 2.43 2.43 0 0 1 2.31 1.27l.2-1.12h1.36zm-2.68-5.9a2.81 2.81 0 0 0 -2.71 2.45c-.24 1.34.39 2.46 1.85 2.46a2.93 2.93 0 0 0 2.84-2.46 1.94 1.94 0 0 0 -1.98-2.45z"/><path d="m370.29 35.3a4.62 4.62 0 0 1 -3.29 1.3c-2.44 0-3.66-1.64-3.31-3.63a4.58 4.58 0 0 1 4.43-3.68c1.85 0 3.35 1.19 2.9 3.78h-6c-.3 1.36.63 2.33 2.18 2.33a4 4 0 0 0 2.45-.89zm-4.94-3.3h4.45a1.68 1.68 0 0 0 -1.88-1.54 2.84 2.84 0 0 0 -2.57 1.54z"/><path d="m374 34.33c-.14.77.16 1.08.63 1.08a1 1 0 0 0 1-.77 1.34 1.34 0 0 0 0-.57h1.19a2.25 2.25 0 0 1 -2.39 2.53c-1.11 0-2.09-.57-1.77-2.37l.66-3.72h-1.15l.2-1.07h1.15l.64-2h1.05l-.33 2h2.22l-.19 1.07h-2.23z"/><path d="m383.46 32.5c.27-1.49-.32-2-1.06-2a2.93 2.93 0 0 0 -2.75 2.71l-.56 3.25h-1.36l1.78-10.13h1.36l-.78 4.52a2.79 2.79 0 0 1 2.62-1.55c1.51 0 2.52.95 2.11 3.21l-.68 4h-1.36z"/><path d="m392.83 35.3a4.62 4.62 0 0 1 -3.29 1.3c-2.44 0-3.66-1.64-3.31-3.63a4.58 4.58 0 0 1 4.43-3.68c1.85 0 3.35 1.19 2.9 3.78h-6c-.3 1.36.63 2.33 2.18 2.33a3.94 3.94 0 0 0 2.45-.89zm-4.94-3.3h4.45a1.68 1.68 0 0 0 -1.88-1.54 2.84 2.84 0 0 0 -2.57 1.54z"/><path d="m396.79 31a2.49 2.49 0 0 1 2.21-1.71 1.41 1.41 0 0 1 .61.15l-.24 1.33a1.44 1.44 0 0 0 -.71-.18c-.46 0-1.82.23-2.34 3.21l-.46 2.65h-1.36l1.23-7h1.36z"/><path d="m400 34.54a.85.85 0 0 1 .86 1 1.26 1.26 0 0 1 -1.21 1 .83.83 0 0 1 -.85-1 1.27 1.27 0 0 1 1.2-1z"/></svg>