<?xml version="1.0" encoding="UTF-8" standalone="no"?>
<!-- Created with Inkscape (http://www.inkscape.org/) -->

<svg
   version="1.1"
   id="svg2"
   width="2745.3333"
   height="922.32001"
   viewBox="0 0 2745.3333 922.32001"
   sodipodi:docname="Findorff_Building_Beyond_CMYK.eps"
   xmlns:inkscape="http://www.inkscape.org/namespaces/inkscape"
   xmlns:sodipodi="http://sodipodi.sourceforge.net/DTD/sodipodi-0.dtd"
   xmlns="http://www.w3.org/2000/svg"
   xmlns:svg="http://www.w3.org/2000/svg">
  <defs
     id="defs6" />
  <sodipodi:namedview
     id="namedview4"
     pagecolor="#ffffff"
     bordercolor="#000000"
     borderopacity="0.25"
     inkscape:showpageshadow="2"
     inkscape:pageopacity="0.0"
     inkscape:pagecheckerboard="0"
     inkscape:deskcolor="#d1d1d1" />
  <g
     id="g8"
     inkscape:groupmode="layer"
     inkscape:label="ink_ext_XXXXXX"
     transform="matrix(1.3333333,0,0,-1.3333333,0,922.32)">
    <g
       id="g10"
       transform="scale(0.1)">
      <path
         d="m 1596.46,218.059 h 200.78 c 27.7,0 57.38,1.73 89.15,5.211 31.71,3.48 60.82,11.5 87.38,24.199 26.53,12.691 48.48,30.902 65.79,54.562 17.31,23.59 25.96,55.629 25.96,96.059 0,64.621 -21.08,109.601 -63.18,134.992 -42.14,25.34 -107.6,38.09 -196.44,38.09 h -209.44 z m 0,540.023 h 199.04 c 72.71,0 127.21,14.09 163.56,42.41 36.36,28.27 54.54,65.457 54.54,111.637 0,53.062 -18.78,92.581 -56.27,118.521 -37.49,25.99 -97.77,38.93 -180.87,38.93 h -180 z M 1378.4,1256.55 h 477.69 c 46.14,0 91.71,-5.51 136.72,-16.46 45.01,-10.97 85.08,-28.87 120.29,-53.67 35.19,-24.79 63.76,-56.83 85.68,-96.06 21.89,-39.23 32.88,-86.54 32.88,-141.891 0,-69.219 -19.65,-126.36 -58.85,-171.328 -39.22,-45.039 -90.58,-77.328 -154.03,-96.969 v -3.473 c 38.09,-4.609 73.54,-15.277 106.45,-31.988 32.88,-16.762 60.82,-38.082 83.94,-64.02 23.05,-25.992 41.23,-56 54.49,-90.011 13.27,-34.078 19.92,-70.668 19.92,-109.899 0,-66.949 -13.27,-122.66 -39.8,-167.031 -26.56,-44.441 -61.44,-80.199 -104.72,-107.328 C 2095.79,79.2891 2046.17,59.9492 1990.21,48.4492 1934.24,36.8906 1877.43,31.1406 1819.73,31.1406 H 1378.4 V 1256.55"
         style="fill:#444142;fill-opacity:1;fill-rule:nonzero;stroke:none"
         id="path12" />
      <path
         d="m 3447.9,481.16 c 0,-73.847 -12.7,-140.508 -38.06,-199.91 -25.4,-59.48 -60.01,-109.898 -103.85,-151.469 C 3262.12,88.2813 3210.19,56.2422 3150.21,33.7188 3090.2,11.2617 3025.01,0 2954.64,0 c -70.4,0 -135.59,11.2617 -195.57,33.7188 -60.01,22.5234 -112.23,54.5625 -156.64,96.0622 -44.44,41.571 -79.05,91.989 -103.85,151.469 -24.82,59.402 -37.19,126.063 -37.19,199.91 v 775.39 h 218.06 V 488.102 c 0,-30.071 4.61,-61.442 13.83,-94.321 9.23,-32.941 24.52,-63.25 45.88,-90.91 21.35,-27.68 49.59,-50.492 84.8,-68.34 35.19,-17.91 78.76,-26.832 130.68,-26.832 51.92,0 95.46,8.922 130.68,26.832 35.16,17.848 63.43,40.66 84.8,68.34 21.33,27.66 36.6,57.969 45.85,90.91 9.23,32.879 13.87,64.25 13.87,94.321 V 1256.55 H 3447.9 V 481.16"
         style="fill:#444142;fill-opacity:1;fill-rule:nonzero;stroke:none"
         id="path14" />
      <path
         d="m 3718.35,1256.55 h 218.06 V 31.1406 H 3718.35 V 1256.55"
         style="fill:#444142;fill-opacity:1;fill-rule:nonzero;stroke:none"
         id="path16" />
      <path
         d="m 4236.63,1256.55 h 218.06 V 228.43 h 520.95 V 31.1406 H 4236.63 V 1256.55"
         style="fill:#444142;fill-opacity:1;fill-rule:nonzero;stroke:none"
         id="path18" />
      <path
         d="m 5547.58,228.43 c 68.07,0 132.42,7.781 193,23.402 60.57,15.578 113.37,39.777 158.35,72.648 45,32.942 80.49,75.59 106.45,128.11 25.96,52.519 38.93,116.25 38.93,191.23 0,73.84 -11.53,137.332 -34.62,190.391 -23.09,53.059 -55.09,96.059 -96.03,128.941 -41,32.879 -89.44,57.138 -145.38,72.708 -56,15.57 -117.45,23.36 -184.34,23.36 H 5384.89 V 228.43 Z m -380.75,1028.12 h 482.86 c 80.77,0 158.65,-12.45 233.67,-37.25 74.98,-24.79 141.33,-62.58 199.04,-113.37 57.68,-50.79 103.85,-114.508 138.47,-191.231 34.61,-76.707 51.89,-167.039 51.89,-270.879 0,-104.98 -19.88,-195.84 -59.71,-272.621 C 6173.25,294.48 6121.9,231.051 6059.04,180.871 5996.13,130.68 5926.33,93.1289 5849.61,68.3398 5772.86,43.5391 5697.58,31.1406 5623.73,31.1406 h -456.9 V 1256.55"
         style="fill:#444142;fill-opacity:1;fill-rule:nonzero;stroke:none"
         id="path20" />
      <path
         d="m 6507.22,1256.55 h 218.06 V 31.1406 H 6507.22 V 1256.55"
         style="fill:#444142;fill-opacity:1;fill-rule:nonzero;stroke:none"
         id="path22" />
      <path
         d="m 7013.22,1256.55 h 289.03 l 593.66,-910.378 h 3.44 v 910.378 h 218.09 V 31.1406 H 7840.51 L 7234.75,970.941 h -3.47 V 31.1406 H 7013.22 V 1256.55"
         style="fill:#444142;fill-opacity:1;fill-rule:nonzero;stroke:none"
         id="path24" />
      <path
         d="M 9468.53,121.16 C 9317.34,40.3711 9148.33,0 8961.41,0 c -94.63,0 -181.47,15.2695 -260.49,45.8789 -79.03,30.543 -147.09,73.7931 -204.23,129.7811 -57.1,55.942 -101.84,123.141 -134.12,201.653 -32.31,78.449 -48.45,165.527 -48.45,261.359 0,98.039 16.14,187.16 48.45,267.398 32.28,80.141 77.02,148.54 134.12,205.07 57.14,56.53 125.2,100.08 204.23,130.68 79.02,30.54 165.86,45.87 260.49,45.87 93.46,0 181.14,-11.26 263.06,-33.78 81.94,-22.51 155.18,-62.57 219.8,-120.25 L 9283.32,970.941 c -39.23,38.089 -86.84,67.499 -142.78,88.279 -55.97,20.78 -115.11,31.14 -177.39,31.14 -63.49,0 -120.89,-11.26 -172.22,-33.72 -51.35,-22.52 -95.49,-53.66 -132.41,-93.488 -36.93,-39.761 -65.5,-86.242 -85.68,-139.3 -20.18,-53.122 -30.27,-110.2 -30.27,-171.352 0,-65.75 10.09,-126.371 30.27,-181.699 20.18,-55.403 48.75,-103.309 85.68,-143.68 36.92,-40.422 81.06,-72.172 132.41,-95.23 51.33,-23.051 108.73,-34.61 172.22,-34.61 55.37,0 107.56,5.211 156.61,15.571 49.05,10.418 92.62,26.527 130.68,48.507 V 550.391 H 8999.47 V 747.66 h 469.06 v -626.5"
         style="fill:#444142;fill-opacity:1;fill-rule:nonzero;stroke:none"
         id="path26" />
      <path
         d="m 11883.2,218.059 h 200.8 c 27.6,0 57.3,1.73 89.1,5.211 31.7,3.48 60.8,11.5 87.4,24.199 26.5,12.691 48.5,30.902 65.8,54.562 17.3,23.59 25.9,55.629 25.9,96.059 0,64.621 -21.1,109.601 -63.2,134.992 -42.1,25.34 -107.5,38.09 -196.4,38.09 h -209.4 z m 0,540.023 h 199 c 72.7,0 127.2,14.09 163.6,42.41 36.3,28.27 54.5,65.457 54.5,111.637 0,53.062 -18.8,92.581 -56.3,118.521 -37.5,25.99 -97.8,38.93 -180.8,38.93 h -180 z m -218.1,498.468 h 477.7 c 46.1,0 91.7,-5.51 136.7,-16.46 45,-10.97 85.1,-28.87 120.3,-53.67 35.2,-24.79 63.7,-56.83 85.7,-96.06 21.9,-39.23 32.8,-86.54 32.8,-141.891 0,-69.219 -19.6,-126.36 -58.8,-171.328 -39.2,-45.039 -90.6,-77.328 -154,-96.969 v -3.473 c 38.1,-4.609 73.5,-15.277 106.4,-31.988 32.9,-16.762 60.9,-38.082 84,-64.02 23,-25.992 41.2,-56 54.5,-90.011 13.2,-34.078 19.9,-70.668 19.9,-109.899 0,-66.949 -13.3,-122.66 -39.8,-167.031 -26.6,-44.441 -61.5,-80.199 -104.8,-107.328 -43.2,-27.1329 -92.8,-46.4728 -148.8,-57.9728 -56,-11.5586 -112.7,-17.3086 -170.5,-17.3086 h -441.3 V 1256.55"
         style="fill:#444142;fill-opacity:1;fill-rule:nonzero;stroke:none"
         id="path28" />
      <path
         d="m 12782.8,1256.55 h 811.8 v -197.33 h -593.7 V 758.082 h 562.5 V 560.75 h -562.5 V 228.43 h 624.8 V 31.1406 h -842.9 V 1256.55"
         style="fill:#444142;fill-opacity:1;fill-rule:nonzero;stroke:none"
         id="path30" />
      <path
         d="m 14235.9,555.602 -460.4,700.948 h 273.5 l 301.1,-488.109 304.6,488.109 h 259.6 L 14453.9,555.602 V 31.1406 h -218 V 555.602"
         style="fill:#444142;fill-opacity:1;fill-rule:nonzero;stroke:none"
         id="path32" />
      <path
         d="m 15191.9,652.5 c 0,-65.75 10,-126.371 30.2,-181.699 20.2,-55.403 48.8,-103.309 85.7,-143.68 36.9,-40.422 81.1,-72.172 132.5,-95.23 51.3,-23.051 108.7,-34.61 172.1,-34.61 63.5,0 121.2,11.559 173.1,34.61 51.9,23.058 96.3,54.808 133.3,95.23 36.9,40.371 65.4,88.277 85.7,143.68 20.1,55.328 30.2,115.949 30.2,181.699 0,61.152 -10.1,118.23 -30.2,171.352 -20.3,53.058 -48.8,99.539 -85.7,139.3 -37,39.828 -81.4,70.968 -133.3,93.488 -51.9,22.46 -109.6,33.72 -173.1,33.72 -63.4,0 -120.8,-11.26 -172.1,-33.72 -51.4,-22.52 -95.6,-53.66 -132.5,-93.488 -36.9,-39.761 -65.5,-86.242 -85.7,-139.3 -20.2,-53.122 -30.2,-110.2 -30.2,-171.352 z m -228.5,-13.828 c 0,98.039 16.2,187.16 48.5,267.398 32.2,80.141 77,148.54 134.1,205.07 57.2,56.53 125.2,100.08 204.2,130.68 79,30.54 165.9,45.87 260.5,45.87 95.8,1.15 183.4,-13 263.1,-42.4 79.6,-29.46 148.2,-72.46 206,-128.93 57.6,-56.55 102.6,-124.641 135,-204.231 32.2,-79.66 48.4,-168.469 48.4,-266.578 0,-95.762 -16.2,-182.84 -48.4,-261.289 -32.4,-78.52 -77.4,-146.02 -135,-202.551 C 16022,125.172 15953.4,81.0313 15873.8,49.2891 15794.1,17.6094 15706.5,1.14063 15610.7,0 c -94.6,0 -181.5,15.2695 -260.5,45.8789 -79,30.543 -147,73.7931 -204.2,129.7811 -57.1,55.942 -101.9,123.141 -134.1,201.653 -32.3,78.449 -48.5,165.527 -48.5,261.359"
         style="fill:#444142;fill-opacity:1;fill-rule:nonzero;stroke:none"
         id="path34" />
      <path
         d="m 16490.5,1256.55 h 289.1 l 593.7,-910.378 h 3.4 v 910.378 h 218.1 V 31.1406 h -276.9 l -605.8,939.8004 h -3.5 V 31.1406 h -218.1 V 1256.55"
         style="fill:#444142;fill-opacity:1;fill-rule:nonzero;stroke:none"
         id="path36" />
      <path
         d="m 18243,228.43 c 68.1,0 132.4,7.781 193,23.402 60.6,15.578 113.4,39.777 158.3,72.648 45.1,32.942 80.5,75.59 106.5,128.11 26,52.519 39,116.25 39,191.23 0,73.84 -11.6,137.332 -34.7,190.391 -23.1,53.059 -55.1,96.059 -96,128.941 -41,32.879 -89.4,57.138 -145.4,72.708 -56,15.57 -117.4,23.36 -184.3,23.36 h -199.1 V 228.43 Z m -380.8,1028.12 h 482.9 c 80.8,0 158.7,-12.45 233.7,-37.25 75,-24.79 141.3,-62.58 199,-113.37 57.7,-50.79 103.9,-114.508 138.5,-191.231 34.6,-76.707 51.9,-167.039 51.9,-270.879 0,-104.98 -19.9,-195.84 -59.7,-272.621 -39.8,-76.719 -91.2,-140.148 -154,-190.328 -63,-50.191 -132.7,-87.7421 -209.4,-112.5312 -76.8,-24.8007 -152.1,-37.1992 -226,-37.1992 h -456.9 V 1256.55"
         style="fill:#444142;fill-opacity:1;fill-rule:nonzero;stroke:none"
         id="path38" />
      <path
         d="m 10499.1,1119.23 c -27.2,0 -50.5,-7.55 -69.9,-22.7 -19.4,-15.16 -29.1,-35.16 -29.1,-60.01 0,-10.91 2.3,-21.56 6.9,-32.04 4.7,-10.488 10.9,-21.031 18.7,-31.5 7.7,-10.48 16.1,-20.371 25,-29.71 9,-9.29 18.1,-18.27 27.4,-26.77 11.7,6.16 24.1,13.352 37.3,21.551 13.2,8.148 25.5,17.441 36.7,27.969 11.3,10.492 20.4,21.929 27.4,34.39 7,12.39 10.5,26.35 10.5,41.91 0,22.52 -8.9,40.97 -26.8,55.34 -17.9,14.38 -39.3,21.57 -64.1,21.57 z m -55.9,-349.582 c -14,-8.566 -27.6,-17.308 -40.8,-26.226 -13.2,-8.93 -25.3,-18.813 -36.2,-29.711 -10.8,-10.84 -19.5,-23.289 -26.1,-37.25 -6.7,-14.012 -10,-29.949 -10,-47.789 0,-17.852 3.5,-34.563 10.5,-50.133 7,-15.519 16.5,-28.75 28.6,-39.59 12,-10.898 25.8,-19.398 41.4,-25.629 15.5,-6.23 32.2,-9.351 50,-9.351 31.9,0 59.9,8.57 83.9,25.64 24.1,17.071 46.6,35.75 67.7,55.93 z m 346,-175.957 178.3,-194.582 h -180.6 l -87.4,94.383 c -33.4,-39.59 -69.1,-68.75 -107.2,-87.383 -38.1,-18.617 -83.5,-27.968 -136.3,-27.968 -36.5,0 -71.7,5.281 -105.4,15.75 -33.9,10.488 -63.6,26 -89.2,46.609 -25.7,20.531 -46.2,45.809 -61.8,75.762 -15.5,29.879 -23.3,64.617 -23.3,104.258 0,27.972 4.7,53.781 14,77.5 9.3,23.66 21.9,45.402 37.9,65.222 15.9,19.817 34.7,37.309 56.5,52.457 21.7,15.16 45,27.371 69.9,36.723 -13.2,14.726 -25.5,29.098 -36.7,43.109 -11.3,13.961 -21.2,28.328 -29.7,43.071 -8.6,14.789 -15.4,30.718 -20.4,47.777 -5.1,17.071 -7.6,35.771 -7.6,55.941 0,33.36 6.4,62.95 19.2,88.59 12.9,25.63 30.2,46.76 51.9,63.47 21.8,16.72 47,29.29 75.7,37.85 28.8,8.57 58.7,12.83 89.8,12.83 31,0 60.5,-3.9 88.5,-11.62 28,-7.79 52.7,-19.65 74,-35.58 21.4,-15.93 38.5,-36.29 51.3,-61.14 12.8,-24.86 19.2,-54.03 19.2,-87.39 0,-25.63 -4.6,-49.17 -14,-70.478 -9.3,-21.391 -21.7,-40.801 -37.2,-58.282 -15.6,-17.488 -33.3,-33.41 -53.1,-47.789 -19.8,-14.371 -39.8,-26.59 -60,-36.718 l 132.8,-143.313 92.1,139.852 h 164.3 l -165.5,-238.911"
         style="fill:#444142;fill-opacity:1;fill-rule:nonzero;stroke:none"
         id="path40" />
      <path
         d="M 11215.3,31.8398 H 9900.66 V 172.969 H 11215.3 V 31.8398"
         style="fill:#444142;fill-opacity:1;fill-rule:nonzero;stroke:none"
         id="path42" />
      <path
         d="m 4499.38,6353.9 c 0,-304.26 -318.46,-550.9 -711.31,-550.9 -392.84,0 -711.31,246.64 -711.31,550.9 0,304.25 318.47,550.89 711.31,550.89 392.85,0 711.31,-246.64 711.31,-550.89"
         style="fill:#d11c2d;fill-opacity:1;fill-rule:nonzero;stroke:none"
         id="path44" />
      <path
         d="M 1490.97,6783.29 H 7.17969 V 6036.83 H 294.34 V 2852.49 H 0.242188 L 0,2121.7 h 1784.82 l 0.25,730.79 h -294.1 v 1131.22 h 680.22 v 896.91 h -680.22 v 1156.21 h 10.38 323.69 27.07 c 49.47,-3.74 153.99,-29.77 203.68,-177.58 56.4,-167.8 241.42,-625.65 241.42,-625.65 h 516.34 v 803.23 746.46 H 1490.97"
         style="fill:#d11c2d;fill-opacity:1;fill-rule:nonzero;stroke:none"
         id="path46" />
      <path
         d="m 4451,2852.49 v 2664.34 l -1364.32,-2.08 v -746.47 h 167.68 V 2852.49 h -167.68 l -0.25,-730.79 1538.46,0.08 -6.21,730.71 H 4451"
         style="fill:#d11c2d;fill-opacity:1;fill-rule:nonzero;stroke:none"
         id="path48" />
      <path
         d="m 4847.03,5455.24 c 1.32,-175.8 0.71,-351.63 0.79,-527.44 0.03,-46.42 0.01,-92.83 0.01,-141.72 0.1,0 0.19,0 0.29,-0.01 v 695.66 c -0.92,-8.04 -1.16,-16.87 -1.09,-26.49"
         style="fill:#d11c2d;fill-opacity:1;fill-rule:nonzero;stroke:none"
         id="path50" />
      <path
         d="m 7821.25,2849.15 c 0,0 1.2,577.32 -0.62,847.87 -2.66,393.33 -2.59,786.8 -13.59,1179.93 -6.72,239.9 -87.81,455.81 -310.11,576.8 -31.26,17.02 -64.08,32.29 -97.76,46.09 -87.01,35.63 -180.35,60.39 -271.66,72.37 -260.18,34.13 -513.43,2.57 -728.53,-170.23 -52.42,-42.1 -101.29,-88.69 -162.95,-144.53 l -0.88,259.45 H 4847.87 l 0.25,-748.62 h 189.93 l 2.19,-1918.59 -183.97,-0.54 c 0,0 -0.11,-473.61 -0.11,-707.1 0,-7.88 0,-15.77 0,-23.66 516.82,0 1027.68,0 1538.93,0 0,253.98 -0.24,730.76 -0.24,730.76 h -177.39 c 0,0 -6.07,1040.13 -5.87,1528.5 0.01,41.12 6.55,84.13 19.75,122.98 1.42,4.18 3.09,8.15 4.69,12.17 38.53,96.67 128.99,147.14 238.18,136.88 98.01,-9.21 148.53,-64.68 166.09,-187.7 7.47,-52.28 12.71,-105.38 12.93,-158.14 1.39,-330.75 2.5,-661.5 3.51,-992.26 v -459.09 -710.44 -14.91 h 3.06 c 0,-1.06 -0.01,-2.14 -0.01,-3.19 459.5,0 901.66,0 1345.68,0 0,6.08 0,12.03 0,18.1 0,240.78 -0.28,707.1 -0.28,707.1 h -183.94"
         style="fill:#d11c2d;fill-opacity:1;fill-rule:nonzero;stroke:none"
         id="path52" />
      <path
         d="m 9844.85,3070.69 c -39.39,-93.23 -106.85,-154.63 -204.04,-154.8 -0.53,0 -1.05,0.03 -1.57,0.04 -0.51,-0.01 -1.02,-0.04 -1.56,-0.04 -97.19,0.17 -164.64,61.57 -204.03,154.8 -70.54,166.96 -140.71,1173.21 0,1542.79 36.07,94.74 106.84,154.63 204.03,154.8 0.53,0 1.05,-0.02 1.56,-0.04 0.52,0.02 1.04,0.04 1.57,0.04 97.19,-0.17 167.97,-60.06 204.04,-154.8 140.71,-369.58 70.53,-1375.83 0,-1542.79 z m 1252.15,-221.54 0.3,3949.87 H 9595.09 v -745.57 h 305.57 v -881.52 c 0,0 -102.74,112.66 -124.97,137.5 -326.47,364.69 -971.65,376.7 -1306.15,20.25 -157.67,-168.03 -233.82,-377.59 -273.86,-600.79 -61.42,-342.27 -62.29,-688.21 -52.05,-1033.96 9.51,-320.71 26.46,-641.91 120.82,-951.51 111.07,-364.41 311.41,-636.78 729.77,-666.98 277.66,-20.04 535.09,25.2 735.41,240.6 55.22,59.37 106.61,122.53 171.03,198.37 V 2121.7 h 1314.64 v 727.45 H 11097"
         style="fill:#d11c2d;fill-opacity:1;fill-rule:nonzero;stroke:none"
         id="path54" />
      <path
         d="m 13008.2,2970.25 c -39.4,-104.99 -106.9,-174.13 -204,-174.32 -0.6,0 -1.1,0.02 -1.6,0.04 -0.5,-0.02 -1,-0.04 -1.6,-0.04 -97.2,0.19 -164.6,69.33 -204,174.32 -70.6,188.02 -140.7,1321.15 0,1737.34 36.1,106.67 106.8,174.12 204,174.32 0.6,0 1.1,-0.03 1.6,-0.05 0.5,0.02 1,0.05 1.6,0.05 97.1,-0.2 167.9,-67.65 204,-174.32 140.7,-416.19 70.5,-1549.32 0,-1737.34 z m 1197.9,1685.19 c -130.4,428.8 -395.3,730.43 -832.4,864.44 -333.2,102.2 -671.6,101.96 -1008.6,29.81 -503.2,-107.72 -841.1,-407.32 -963.4,-911.2 -132.2,-544.98 -129.8,-1095.7 24.7,-1637.48 114.6,-401.83 360.9,-696.4 768.3,-829.63 327.4,-107.08 663.7,-113.64 1000.1,-47.86 467.9,91.5 785,366.52 955,809.91 100.9,263.2 137.9,538.96 146.8,819.39 7.9,304.72 -1,608.08 -90.5,902.62"
         style="fill:#d11c2d;fill-opacity:1;fill-rule:nonzero;stroke:none"
         id="path56" />
      <path
         d="m 15814.9,5231.82 v 285.08 h -1365.3 v -746.47 h 168.7 V 2849.15 h -167.7 V 2121.7 h 1639.8 v 727.45 h -275.5 v 1293.06 c 1.9,702.43 745.8,578.96 745.8,578.96 v 795.73 c -446.1,0 -662.4,-186.19 -745.8,-285.08"
         style="fill:#d11c2d;fill-opacity:1;fill-rule:nonzero;stroke:none"
         id="path58" />
      <path
         d="M 17271.8,6526.46 C 16933.1,6146.05 16933.1,5516.9 16933.1,5516.9 h -223 v -792.39 h 223 v -1873.8 h -221.6 V 2121.7 h 1639.8 v 729.01 h -221.6 v 1873.8 h 357.9 v 792.39 h -357.9 c -17,669.19 469.9,536.55 469.9,536.55 l 0.2,826.73 c -941,180.2 -1328,-353.72 -1328,-353.72"
         style="fill:#d11c2d;fill-opacity:1;fill-rule:nonzero;stroke:none"
         id="path60" />
      <path
         d="m 19261.9,6526.59 c -338.6,-380.41 -338.6,-1009.57 -338.6,-1009.57 h -223 v -792.38 h 223 V 2850.83 h -221.6 v -729.01 h 1639.8 v 729.01 h -221.6 v 1873.81 h 357.9 v 792.38 h -357.9 c -17.1,669.2 469.9,536.55 469.9,536.55 l 0.2,826.73 c -941,180.2 -1328.1,-353.71 -1328.1,-353.71"
         style="fill:#d11c2d;fill-opacity:1;fill-rule:nonzero;stroke:none"
         id="path62" />
    </g>
  </g>
</svg>
