<?xml version="1.0" encoding="UTF-8" standalone="no"?>
<!-- Created with Inkscape (http://www.inkscape.org/) -->

<svg
   version="1.1"
   id="svg2"
   width="306.23999"
   height="273.58667"
   viewBox="0 0 306.23999 273.58667"
   sodipodi:docname="FIRST-Regional-Wisconsin-1color-Rev-v.eps"
   xmlns:inkscape="http://www.inkscape.org/namespaces/inkscape"
   xmlns:sodipodi="http://sodipodi.sourceforge.net/DTD/sodipodi-0.dtd"
   xmlns="http://www.w3.org/2000/svg"
   xmlns:svg="http://www.w3.org/2000/svg">
  <defs
     id="defs6" />
  <sodipodi:namedview
     id="namedview4"
     pagecolor="#ffffff"
     bordercolor="#000000"
     borderopacity="0.25"
     inkscape:showpageshadow="2"
     inkscape:pageopacity="0.0"
     inkscape:pagecheckerboard="0"
     inkscape:deskcolor="#d1d1d1" />
  <g
     id="g8"
     inkscape:groupmode="layer"
     inkscape:label="ink_ext_XXXXXX"
     transform="matrix(1.3333333,0,0,-1.3333333,0,273.58667)">
    <g
       id="g10"
       transform="scale(0.1)">
      <path
         d="M 133.289,914.422 H 529.402 L 492.105,761.879 H 302.246 l -18.769,-80.141 h 198.054 l -34.48,-141.34 H 251.559 L 204.629,339.609 H 0 l 133.289,574.813 v 0"
         style="fill:#ffffff;fill-opacity:1;fill-rule:nonzero;stroke:none"
         id="path12" />
      <path
         d="M 585.754,914.422 H 790.375 L 657.086,339.609 H 452.461 l 133.293,574.813 v 0"
         style="fill:#ffffff;fill-opacity:1;fill-rule:nonzero;stroke:none"
         id="path14" />
      <path
         d="m 841.418,910.961 13.145,1.719 c 65.703,7.761 147.367,12.929 192.417,12.929 75.09,0 133.29,-8.609 177.41,-26.718 56.32,-23.262 90.11,-74.102 90.11,-135.289 0,-52.563 -17.83,-102.563 -51.62,-141.332 -29.11,-33.61 -55.38,-49.981 -109.83,-66.352 l -13.15,-4.309 c 5.64,-4.32 7.52,-6.039 10.33,-8.621 15.96,-18.097 63.83,-111.168 104.2,-203.379 h -225.28 c -29.09,81.879 -37.548,103.422 -76.037,196.493 L 908.063,339.609 H 709.066 L 841.418,910.961 Z M 992.539,640.359 c 65.711,0 111.701,38.789 111.701,93.942 0,29.301 -21.59,43.949 -63.83,43.949 -12.2,0 -18.77,-0.859 -31.91,-3.441 L 977.52,642.102 c 6.574,-0.864 7.515,-1.743 15.019,-1.743 v 0"
         style="fill:#ffffff;fill-opacity:1;fill-rule:nonzero;stroke:none"
         id="path16" />
      <path
         d="m 1800.27,914.422 h 496.51 l -34.69,-166.41 h -147.35 l -97.63,-408.403 h -204.63 l 97.63,408.403 h -159.74 l 49.9,166.41 v 0"
         style="fill:#ffffff;fill-opacity:1;fill-rule:nonzero;stroke:none"
         id="path18" />
      <path
         d="m 2112.87,420.918 c 27.59,0 49.97,-22.199 49.97,-49.777 0,-27.789 -22.19,-49.981 -49.97,-49.981 -27.97,0 -49.77,21.809 -49.77,49.981 0,27.769 21.99,49.777 49.77,49.777 z m 0,-93.566 c 24.32,0 43.81,19.488 43.81,43.589 0,24.297 -19.49,43.809 -43.81,43.809 -24.12,0 -43.59,-19.512 -43.59,-43.609 0,-24.512 19.29,-43.789 43.59,-43.789 z m -19.29,69.257 c 2.52,0.192 2.89,0.371 7.91,0.762 5.01,0.391 7.14,0.578 9.26,0.578 16.41,0 24.51,-6.359 24.51,-18.508 0,-7.339 -3.08,-11.781 -9.65,-14.281 l -0.77,-0.191 c 0.57,-0.391 0.77,-0.59 0.96,-0.957 1.74,-1.563 7.52,-10.242 12.35,-18.153 h -18.71 c -3.86,7.129 -5.02,9.071 -9.85,17.172 v -17.172 h -16.01 v 50.75 z m 17.94,-23.929 c 4.44,0 6.96,2.129 6.96,6.172 0,3.867 -2.32,5.976 -6.76,5.976 -0.97,0 -1.16,0 -2.13,-0.18 v -11.769 c 0.77,-0.199 1.16,-0.199 1.93,-0.199 v 0"
         style="fill:#ffffff;fill-opacity:1;fill-rule:nonzero;stroke:none"
         id="path20" />
      <path
         d="m 1685.99,645.551 c -23.48,18.949 -47.87,33.597 -97.63,56.859 L 1548,721.371 c -13.15,6.899 -19.72,13.789 -19.72,21.551 0,20.68 26.29,36.187 61.95,36.187 26.69,0 58.5,-7.757 119.27,-27.64 l 41.96,155.609 c -45.46,12.344 -89.76,18.531 -134.01,18.531 -167.07,0 -295.67,-91.347 -295.67,-209.39 0,-62.047 41.31,-106 144.55,-154.258 48.81,-22.422 57.27,-28.461 57.27,-43.973 0,-23.258 -25.36,-37.91 -66.66,-37.91 -36.6,0 -83.52,11.211 -147.37,34.481 l -2.58,-4.379 -42.41,-155.961 c 57.54,-17.09 120.45,-26.68 179.22,-26.68 79.8,0 140.81,18.109 193.36,56.02 58.19,41.371 95.75,105.14 95.75,162.871 0,38.789 -16.88,74.121 -46.92,99.121 v 0"
         style="fill:#ffffff;fill-opacity:1;fill-rule:nonzero;stroke:none"
         id="path22" />
      <path
         d="m 1116.09,1713.8 c 31.17,0 61.41,-2.85 90.26,-8.12 l 68.71,71.58 c -48.03,16.63 -101.97,25.96 -158.97,25.96 -96.9,0 -184.902,-27.02 -250.133,-71 l 59.848,-56.74 c 55.355,24.26 120.505,38.32 190.285,38.32 v 0"
         style="fill:#ffffff;fill-opacity:1;fill-rule:nonzero;stroke:none"
         id="path24" />
      <path
         d="m 757.465,1499 c 6.273,25.64 17.89,50.01 33.898,72.5 l -30.078,30.43 c -6.012,-18.71 -9.297,-38.2 -9.297,-58.23 0,-15.25 1.93,-30.17 5.477,-44.7 v 0"
         style="fill:#ffffff;fill-opacity:1;fill-rule:nonzero;stroke:none"
         id="path26" />
      <path
         d="m 534.746,1330.7 -12.449,-65.14 124.121,53.23 c -7.934,16.69 -14.301,33.94 -18.906,51.66 l -92.766,-39.75 v 0"
         style="fill:#ffffff;fill-opacity:1;fill-rule:nonzero;stroke:none"
         id="path28" />
      <path
         d="m 445.875,2042.9 -181.91,-996.09 86.031,-7.03 180.192,1010.62 -84.313,-7.5 v 0"
         style="fill:#ffffff;fill-opacity:1;fill-rule:nonzero;stroke:none"
         id="path30" />
      <path
         d="m 1474.71,1499 c 3.54,14.53 5.51,29.45 5.51,44.7 0,45 -16.09,87.32 -44.36,124.2 l -43.2,-44.97 c 41.58,-34.64 70.65,-77.13 82.05,-123.93 v 0"
         style="fill:#ffffff;fill-opacity:1;fill-rule:nonzero;stroke:none"
         id="path32" />
      <path
         d="m 1556.22,1072.63 -102.06,97.99 c -16.42,-11.23 -33.89,-21.66 -52.28,-31.21 l 154.34,-148.191 478.48,498.341 v 81.37 l -478.48,-498.3 v 0"
         style="fill:#ffffff;fill-opacity:1;fill-rule:nonzero;stroke:none"
         id="path34" />
      <path
         d="m 1122.96,1488.63 -65.04,62.44 v -0.81 l 65.04,-61.63 v 0"
         style="fill:#ffffff;fill-opacity:1;fill-rule:nonzero;stroke:none"
         id="path36" />
      <path
         d="m 1207.57,1407.36 -84.61,81.27 -65.04,61.63 v -80.56 l 91.06,-87.46 87.07,-83.6 c 22.08,5.51 43.26,12.46 63.18,20.73 l -91.66,87.99 v 0"
         style="fill:#ffffff;fill-opacity:1;fill-rule:nonzero;stroke:none"
         id="path38" />
      <path
         d="m 1540.25,1858.04 -68.1,-70.91 -75.15,-78.31 -51.19,-53.32 -96.51,-100.52 40.64,-39.03 102.72,106.98 43.2,44.97 79.08,82.37 25.31,26.37 262.42,-251.96 40.7,42.38 -303.12,290.98 v 0"
         style="fill:#ffffff;fill-opacity:1;fill-rule:nonzero;stroke:none"
         id="path40" />
      <path
         d="m 786.02,1435.04 c 0,0 2.359,-3.93 2.652,-4.38 7.308,-11.61 17.25,-22.81 26.754,-33.41 l 148.461,69.34 -341.992,318.45 -9.422,-48.85 268.906,-266.02 -95.359,-35.13 v 0"
         style="fill:#ffffff;fill-opacity:1;fill-rule:nonzero;stroke:none"
         id="path42" />
      <path
         d="m 662.656,1377.64 c -0.781,1.31 -4.14,4.31 -4.89,5.64 l -123.02,-52.58 -12.449,-65.14 167.433,71.76 c -9.203,11.85 -19.707,27.68 -27.074,40.32 v 0"
         style="fill:#ffffff;fill-opacity:1;fill-rule:nonzero;stroke:none"
         id="path44" />
      <path
         d="m 1613.83,1530.09 c 0,-15.17 -1.38,-30.09 -3.79,-44.74 -11.05,-67.47 -46.82,-129.28 -100.37,-180.4 -31.9,-30.48 -70.11,-57.13 -113.23,-78.91 -18.57,-9.43 -38.03,-17.9 -58.31,-25.39 -66.85,-24.68 -142.22,-38.56 -222.04,-38.56 -114.08,0 -219.113,28.43 -303.016,76.17 -48.277,27.48 -89.515,61.32 -121.472,99.88 -12.164,14.68 -22.985,30.02 -32.282,45.95 -18.574,31.7 -31.324,65.67 -37.152,101.26 -2.41,14.65 -3.809,29.57 -3.809,44.74 0,4.75 0.332,9.46 0.594,14.15 -0.058,0.27 -0.137,0.61 -0.152,0.85 -2.418,-14.66 -11.949,-55.78 -11.949,-70.93 0,-24 14.714,-80.98 20.66,-103.71 4.605,-17.72 10.972,-34.97 18.906,-51.66 19.961,-42.11 49.961,-80.74 87.945,-114.28 91.328,-80.58 228.418,-131.88 381.727,-131.88 106.41,0 204.89,24.75 285.79,66.78 18.39,9.55 35.86,19.98 52.28,31.21 40.1,27.44 74.06,59.67 100.21,95.51 37.91,51.89 65.43,149.86 65.43,213.02 0,13.32 -4.82,37.93 -6.12,63 -0.21,3.44 0.15,-7.72 0.15,-12.06 v 0"
         style="fill:#ffffff;fill-opacity:1;fill-rule:nonzero;stroke:none"
         id="path46" />
      <path
         d="m 534.746,1330.7 v 0"
         style="fill:#ffffff;fill-opacity:1;fill-rule:nonzero;stroke:none"
         id="path48" />
      <path
         d="m 1549.38,1262 248.3,258.54 40.7,42.38 -10.81,10.37 -29.89,-31.12 -248.3,-258.55"
         style="fill:#ffffff;fill-opacity:1;fill-rule:nonzero;stroke:none"
         id="path50" />
      <path
         d="m 1202.2,1685.73 68.71,71.58 74.69,77.76 186.62,194.37 492.52,-471.4 10.79,11.24 -503.31,481.78 -186.62,-194.37 -74.69,-77.75 -68.71,-71.6 -148.43,-154.59 10.81,-10.37 137.62,143.35 v 0"
         style="fill:#ffffff;fill-opacity:1;fill-rule:nonzero;stroke:none"
         id="path52" />
      <path
         d="m 1251.8,1557.48 -10.79,-11.25 28.14,-26.95 136.09,-132.71 c 3.86,3.55 7.62,7.16 11.22,10.85 l -147.31,143.49 -17.35,16.57 v 0"
         style="fill:#ffffff;fill-opacity:1;fill-rule:nonzero;stroke:none"
         id="path54" />
      <path
         d="m 728.77,1223.71 -376.719,-164.73 -3.727,-20.87 394.504,172.57 c -4.875,4.3 -9.551,8.65 -14.058,13.03 v 0"
         style="fill:#ffffff;fill-opacity:1;fill-rule:nonzero;stroke:none"
         id="path56" />
      <path
         d="m 608.508,1746.54 -80.426,-419.16 -12.457,-65.14 21.316,9.14 9.438,49.34 80.422,419.16 6.246,34.04 -16.41,16.53 -8.129,-43.91 v 0"
         style="fill:#ffffff;fill-opacity:1;fill-rule:nonzero;stroke:none"
         id="path58" />
      <path
         d="m 1057.92,1551.75 -132.115,125.22 -59.848,56.74 -78.34,74.23 -257.429,243.96 -2.961,-16.63 250.41,-237.33 78.34,-74.23 59.847,-56.72 148.016,-141.13 -5.92,25.89 v 0"
         style="fill:#ffffff;fill-opacity:1;fill-rule:nonzero;stroke:none"
         id="path60" />
      <path
         d="m 955.238,1314.47 182.272,81.98 -13.59,13.1 -190.229,-86.6 21.547,-8.48 v 0"
         style="fill:#ffffff;fill-opacity:1;fill-rule:nonzero;stroke:none"
         id="path62" />
      <path
         d="m 1096.12,1904.75 c 80.26,0 187.94,-20.85 255.07,-45.8 l 14.67,15.12 c -69.69,27.47 -181.21,49.7 -265.68,49.7 -125.918,0 -255.957,-44.55 -343.633,-101.56 l 18.308,-11.07 c 86.383,53.43 199.848,93.61 321.265,93.61 v 0"
         style="fill:#ffffff;fill-opacity:1;fill-rule:nonzero;stroke:none"
         id="path64" />
      <path
         d="m 1112.95,1149.02 c -112.94,0 -219.958,26.92 -309.489,77.85 -49.891,28.4 -91.867,62.93 -124.766,102.63 -12.679,15.32 -23.89,31.28 -33.328,47.45 -19.621,33.48 -32.586,68.83 -38.512,105.02 -2.656,16.15 -3.949,31.36 -3.949,46.49 0,59.67 18.145,116.83 53.93,169.93 l 6.129,9.09 103.019,-104.27 -1.664,-5.18 c -5.925,-18.44 -8.929,-37.24 -8.929,-55.87 0,-14.15 1.765,-28.57 5.254,-42.87 4.968,-20.29 13.57,-40.23 25.55,-59.24 9.567,-15.2 21.254,-29.72 34.743,-43.16 37.582,-37.54 88.824,-67.16 148.179,-85.66 45.423,-14.16 93.803,-21.34 143.833,-21.34 40.39,0 80.3,4.81 118.61,14.29 21.75,5.44 42.71,12.32 62.3,20.45 44.76,18.64 84.1,44.51 113.72,74.84 29.49,30.24 48.88,63.83 57.64,99.81 3.51,14.42 5.3,28.85 5.3,42.88 0,43.16 -17.23,92.45 -44.96,128.63 l -4.69,6.12 91.27,95.05 6.47,-6.4 c 65.35,-64.59 104.37,-153.22 104.37,-237.1 0,-15.02 -1.32,-30.67 -3.94,-46.5 -11.12,-67.97 -46.99,-132.51 -103.7,-186.64 -32.83,-31.38 -71.9,-58.62 -116.12,-80.96 -18.91,-9.6 -38.99,-18.34 -59.65,-25.97 -70.78,-26.12 -147.02,-39.37 -226.62,-39.37 z m -447.22,530.11 c -29.777,-47.44 -44.863,-98.07 -44.863,-150.67 0,-14.14 1.211,-28.4 3.711,-43.58 5.578,-34.01 17.785,-67.27 36.289,-98.86 8.961,-15.34 19.613,-30.5 31.66,-45.06 31.504,-38.01 71.825,-71.15 119.817,-98.48 86.828,-49.39 190.776,-75.5 300.606,-75.5 77.46,0 151.61,12.87 220.41,38.27 20.01,7.38 39.43,15.84 57.74,25.14 42.66,21.55 80.28,47.76 111.83,77.92 53.88,51.41 87.9,112.47 98.4,176.57 2.45,14.88 3.69,29.53 3.69,43.58 0,76.42 -34.48,157.19 -92.65,217.83 l -67.96,-70.8 c 27.32,-38.48 44.09,-88.85 44.09,-133.33 0,-15.47 -1.97,-31.32 -5.82,-47.13 -9.54,-39.15 -30.48,-75.52 -62.25,-108.1 -31.3,-32.05 -72.69,-59.32 -119.69,-78.89 -20.4,-8.48 -42.22,-15.64 -64.86,-21.29 -39.73,-9.84 -81.09,-14.82 -122.93,-14.82 -51.84,0 -102.04,7.46 -149.177,22.15 -62.125,19.36 -115.902,50.51 -155.527,90.1 -14.43,14.37 -26.969,29.96 -37.254,46.3 -13.004,20.65 -22.359,42.36 -27.801,64.54 -3.828,15.7 -5.765,31.55 -5.765,47.14 0,18.73 2.75,37.59 8.179,56.12 l -79.875,80.85 v 0"
         style="fill:#ffffff;fill-opacity:1;fill-rule:nonzero;stroke:none"
         id="path66" />
      <path
         d="m 1612.53,1020.38 h -9.46 v 3.4 h 22.99 v -3.4 h -9.49 v -27.661 h -4.04 v 27.661 0"
         style="fill:#ffffff;fill-opacity:1;fill-rule:nonzero;stroke:none"
         id="path68" />
      <path
         d="m 1654.79,1006.36 c -0.2,4.32 -0.48,9.54 -0.42,13.41 h -0.16 c -1.06,-3.65 -2.35,-7.5 -3.91,-11.77 l -5.51,-15.102 h -3.01 l -5.05,14.802 c -1.49,4.41 -2.72,8.39 -3.59,12.07 h -0.11 c -0.09,-3.87 -0.31,-9.09 -0.59,-13.71 l -0.81,-13.341 h -3.83 l 2.18,31.061 h 5.09 l 5.31,-15.02 c 1.29,-3.84 2.35,-7.25 3.15,-10.451 h 0.12 c 0.8,3.121 1.91,6.531 3.27,10.451 l 5.54,15.02 h 5.12 l 1.95,-31.061 h -3.92 l -0.82,13.641 v 0"
         style="fill:#ffffff;fill-opacity:1;fill-rule:nonzero;stroke:none"
         id="path70" />
      <path
         d="M 558.176,4.42188 H 532.434 L 490.051,160.43 h -0.52 L 446.633,4.42188 H 420.891 L 373.305,190.059 h 25.218 L 434.926,35.6211 h 0.523 l 41.602,154.4379 h 26.777 L 544.91,35.6211 h 0.52 l 37.707,154.4379 h 24.695 L 558.176,4.42188"
         style="fill:#ffffff;fill-opacity:1;fill-rule:nonzero;stroke:none"
         id="path72" />
      <path
         d="m 642.668,190.059 h 24.695 V 4.42188 H 642.668 V 190.059"
         style="fill:#ffffff;fill-opacity:1;fill-rule:nonzero;stroke:none"
         id="path74" />
      <path
         d="m 826.746,135.73 c -2.859,26.508 -20.539,37.961 -46.023,37.961 -20.801,0 -41.602,-7.543 -41.602,-31.722 0,-22.879 29.645,-26.258 59.547,-33.028 29.637,-6.761 59.281,-17.1597 59.281,-53.5621 C 857.949,15.8594 819.211,0 785.406,0 743.805,0 708.699,20.2813 708.699,65.5195 h 23.406 c 0,-31.1992 26,-44.7187 54.083,-44.7187 22.359,0 47.058,7.0195 47.058,33.8086 0,25.4687 -29.641,29.8906 -59.281,36.3906 -29.641,6.5117 -59.539,15.078 -59.539,49.141 0,37.711 33.539,54.347 67.344,54.347 37.957,0 66.82,-17.937 68.375,-58.758 h -23.399"
         style="fill:#ffffff;fill-opacity:1;fill-rule:nonzero;stroke:none"
         id="path76" />
      <path
         d="m 1028.76,134.172 c -5.2,26.258 -26.26,39.519 -51.998,39.519 -44.203,0 -62.922,-36.41 -62.922,-75.1519 0,-42.3789 18.719,-77.7383 63.18,-77.7383 32.5,0 51.22,22.8789 53.57,53.5586 h 24.69 C 1050.61,28.0781 1021.74,0 974.941,0 c -57.718,0 -85.8,42.6406 -85.8,96.7188 0,53.8202 30.679,97.7692 87.879,97.7692 38.74,0 70.72,-20.797 76.45,-60.316 h -24.71"
         style="fill:#ffffff;fill-opacity:1;fill-rule:nonzero;stroke:none"
         id="path78" />
      <path
         d="m 1174.87,20.8008 c 45.25,0 64.23,39 64.23,76.4375 0,37.4417 -18.98,76.4527 -64.23,76.4527 -45.23,0 -64.22,-39.011 -64.22,-76.4527 0,-37.4375 18.99,-76.4375 64.22,-76.4375 z m 0,173.6872 c 59.03,0 88.93,-46.808 88.93,-97.2497 C 1263.8,46.8008 1233.9,0 1174.87,0 c -59.02,0 -88.91,46.8008 -88.91,97.2383 0,50.4417 29.89,97.2497 88.91,97.2497"
         style="fill:#ffffff;fill-opacity:1;fill-rule:nonzero;stroke:none"
         id="path80" />
      <path
         d="m 1304.09,190.059 h 26.26 l 97.77,-150.5395 h 0.52 V 190.059 h 23.4 V 4.42188 H 1425 L 1328.02,153.398 h -0.53 V 4.42188 h -23.4 V 190.059"
         style="fill:#ffffff;fill-opacity:1;fill-rule:nonzero;stroke:none"
         id="path82" />
      <path
         d="m 1609.85,135.73 c -2.86,26.508 -20.54,37.961 -46.02,37.961 -20.8,0 -41.6,-7.543 -41.6,-31.722 0,-22.879 29.64,-26.258 59.54,-33.028 29.65,-6.761 59.28,-17.1597 59.28,-53.5621 C 1641.05,15.8594 1602.31,0 1568.51,0 c -41.61,0 -76.7,20.2813 -76.7,65.5195 h 23.4 c 0,-31.1992 26,-44.7187 54.08,-44.7187 22.36,0 47.07,7.0195 47.07,33.8086 0,25.4687 -29.65,29.8906 -59.29,36.3906 -29.64,6.5117 -59.54,15.078 -59.54,49.141 0,37.711 33.53,54.347 67.34,54.347 37.96,0 66.82,-17.937 68.38,-58.758 h -23.4"
         style="fill:#ffffff;fill-opacity:1;fill-rule:nonzero;stroke:none"
         id="path84" />
      <path
         d="m 1682.38,190.059 h 24.71 V 4.42188 h -24.71 V 190.059"
         style="fill:#ffffff;fill-opacity:1;fill-rule:nonzero;stroke:none"
         id="path86" />
      <path
         d="m 1758.83,190.059 h 26.26 l 97.76,-150.5395 h 0.52 V 190.059 h 23.41 V 4.42188 h -27.04 L 1782.75,153.398 h -0.52 V 4.42188 h -23.4 V 190.059"
         style="fill:#ffffff;fill-opacity:1;fill-rule:nonzero;stroke:none"
         id="path88" />
    </g>
  </g>
</svg>
