<svg xmlns="http://www.w3.org/2000/svg" xmlns:xlink="http://www.w3.org/1999/xlink" width="332" height="40" viewBox="0 0 332 40" class="nmx-icon">
  <g fill="#0e497b" fill-rule="evenodd">
    <path d="M55.2 19.4h-2.4v-1.7h5.8v1.7L69 30.7V19.4h-2.6v-1.7h7.2v1.7H71V36h-2L57.4 23.2v11h2.5V36h-7v-1.7h2.4zM74 29.5c0 2.8 1.8 6.8 7.3 6.8 5 0 7.2-3.6 7.2-6.8 0-3.4-2.4-7-7.2-7-5.3 0-7.4 4-7.4 7m4 0c0-3.2 1-5.5 3.4-5.5 2.2 0 3.3 2 3.3 5.6 0 3.3-1.3 5.3-3.3 5.3-2.2 0-3.5-2-3.5-5.5M91.8 24.3h-2.3V23h5.8v2.2c.6-.9 1.1-1.5 1.7-2 .5-.4 1-.6 1.6-.6.6 0 1.5.5 2 1.3a10 10 0 0 1-1.2 3.7c-.7-1.4-1.3-1.9-2.2-1.9-.7 0-1 .4-1.9 1.3v7.6h2.3V36h-8v-1.4h2.2V24.3zM101.5 24.7l5.5-5.4v3.6h3.6v1.7H107V32c0 1.7.5 2.8 1.7 2.8 1 0 1.7-1 2.1-1 .3 0 .4.2.4.4 0 .6-1.1 2-3.8 2-2.7 0-4-1.4-4-4.4v-7.2h-1.9zM118.1 24.5c1.7-1.1 3.3-2 4.7-2 2 0 3.6 1.7 3.6 4v8h2.2V36H121v-1.4h1.9v-7.5c0-1.5-.7-2.3-2-2.3-.7 0-1.7.4-2.8 1v8.8h2V36h-7.8v-1.4h2.4V17.3h-2.4v-1.4h5.8v8.6zM127.7 24.3V23h7.2v1.3H133l3 6.5 2.3-6.5h-1.8v-1.4h6.6v1.4h-1.6l3 6.5 2.3-6.5h-2v-1.4h5.4v1.4h-1.8L144 36.2h-.8l-4.3-9.2-3.4 9.2h-.6l-5.5-11.8zM162.6 28.6c-.4-3.7-2.7-6-6-6-3.5 0-6 2.7-6 6.6 0 3 1.7 7.1 7 7.1a9 9 0 0 0 5-1.3l.2-1.7c-1 .8-2.7 1.3-4.1 1.3-2.6 0-4.3-2.4-4.3-6h8.2zm-8.2-1.4c0-1.6.7-3.2 2.2-3.2 1.2 0 2 1.2 2.4 3.2h-4.6zM164.9 32.1h.9c.5 1.8 1.7 2.8 3.2 2.8 1 0 1.8-.5 1.8-1.5 0-2.1-6-2.7-6-6.8 0-2.3 1.9-4 4.4-4 .9 0 1.6.2 2.5.8l.2-.7h1v3.5h-1c-.5-1.6-1.2-2.2-2.4-2.2-1 0-1.8.5-1.8 1.2 0 2.7 6.2 2.7 6.2 7 0 2.5-1.9 4.1-4.6 4.1-1.1 0-2.2-.2-3.2-.7l-.2.6h-1v-4zM174.8 24.7l5.5-5.3V23h3.6v1.7h-3.6v7.4c0 1.7.5 2.8 1.7 2.8 1 0 1.7-1 2.2-1 .2 0 .4.2.4.4 0 .6-1.2 2-3.9 2s-4-1.4-4-4.4v-7.2h-1.9zM197 28.6c-.4-3.7-2.7-6-6-6-3.5 0-6 2.7-6 6.6 0 3 1.7 7.1 7 7.1a9 9 0 0 0 5-1.3l.2-1.7c-1 .8-2.7 1.3-4.1 1.3-2.6 0-4.3-2.4-4.3-6h8.2zm-8.2-1.4c0-1.6.7-3.2 2.2-3.2 1.2 0 2.1 1.2 2.4 3.2h-4.6zM200.8 24.3h-2.3V23h5.8v2.2a9 9 0 0 1 1.7-2c.5-.4 1-.6 1.6-.6.6 0 1.5.5 2 1.3a9.7 9.7 0 0 1-1.2 3.7c-.7-1.4-1.3-1.9-2.2-1.9-.7 0-1 .4-1.9 1.3v7.6h2.3V36h-8v-1.4h2.2V24.3zM213.3 24.3h-2.2V23h5.7v1.5c1.8-1.1 3-1.9 4.6-1.9 2.3 0 3.6 1.5 3.6 4v8h2.3V36h-7.6v-1.4h1.8v-7.8c0-1.3-.8-2-1.8-2-.9 0-1.7.3-2.9 1v8.8h1.8V36h-7.5v-1.4h2.2V24.3zM237.6 19.4H235v-1.7h6.6v1.7l5.4 10.9 5.2-10.8v-1.7h6.8v1.7h-2.4v14.8h2.4v1.8h-8.7v-1.8h2.6V22.7L246.6 36h-.7l-6.2-12.7v11h2.4V36h-7v-1.8h2.5zM275.4 34.6V36h-5.8v-1.3a8 8 0 0 1-4.4 1.6c-2.9 0-3.8-1.7-3.8-3.6v-8.4h-2.2v-1.4h5.7v9.4c0 1.2.7 2.1 1.8 2.1.8 0 1.6-.4 3-1.1v-9h-2.3v-1.4h5.7v11.6h2.3zM275.7 24.7l5.5-5.3V23h3.6v1.7h-3.6v7.4c0 1.7.5 2.8 1.7 2.8 1 0 1.7-1 2.1-1 .3 0 .4.2.4.4 0 .6-1.1 2-3.8 2-2.7 0-4-1.4-4-4.4v-7.2h-1.9zM302.2 34.6V36h-5.8v-1.3a8 8 0 0 1-4.4 1.6c-2.9 0-3.8-1.7-3.8-3.6v-8.4H286v-1.4h5.7v9.4c0 1.2.7 2.1 1.8 2.1.8 0 1.6-.4 3-1.1v-9h-2.3v-1.4h5.7v11.6h2.3zM315.7 34.1a2 2 0 0 1-1 .2c-.8 0-1.5-.6-1.5-1.6v-5.8c0-2.5-1.9-4.3-4.4-4.3-1.7 0-3.7.9-5.3 2.2l.3 1a7 7 0 0 1 3.6-1.2c1.5 0 2.3.9 2.3 2.5v1.5l-3.2.8c-2.3.7-3.4 1.6-3.4 3.4 0 2 1.3 3.5 3 3.5 1.3 0 2.4-.5 3.9-1.6.4 1 1.4 1.6 2.6 1.6 1 0 2-.3 3-.9v-1.3zm-6-4v3.2c-.7.5-1.4.8-2 .8-.7 0-1.3-.7-1.3-1.5 0-1.2.7-1.9 3.3-2.4zM318.9 17.3h-2.3v-1.4h5.8v18.7h2.2V36h-8v-1.4h2.3zM11.3 18.3c3.4 0 6.4 5.4 7 14 .5-1.7.7-3.5.7-5.3 0-6.3-3-11.8-7-11.8-3.7 0-4 3-3.1 4.4.3-.5 1-1.4 2.4-1.4zm3.8 15.5c.2-.8.3-1.4.3-2.5C15.4 27.4 13 21 8.5 21c-3.4 0-3.9 3.3-2.8 4.3.3-.7 1-1.7 2.4-1.7 3.6 0 6.3 5.7 7 10.2zm22.5-14.2c.4-.5.5-1.1.5-1.6 0-1.4-1.4-2.9-3.4-2.9-6 0-8.2 10.5-6.5 17.1.6-9.1 3.6-14 7-14 1.7 0 2.3 1 2.4 1.4zm.2 1.4c-5.6 0-7.7 9.5-6.5 12.8.7-4.8 3.3-10.2 6.8-10.2 1.9 0 2.4 1.2 2.5 1.7 1.2-1.2.5-4.3-2.8-4.3zM24.2 37c-3.3 0-6.8.8-9.7 2.6v.1a64 64 0 0 1 9-.6c4.6 0 6.3.6 7 .6.6 0 .8-.3.8-.8 0-1.3-3.4-1.9-7-1.9zm0-3.5c-2.8 0-6.8.7-9.7 2.6 1.2-.1 5-.6 9.1-.6 4 0 6.3.7 7 .7.5 0 .7-.3.7-.8 0-1.4-3.4-2-7-2zm13.4-22.8c-.4.1-1 .8-1 1.7 0 1.1.8 3.4 4 3.4S46 13.3 46 10c0-3.2-2.3-6.3-7.6-6.3-6.2 0-14.2 5.6-14.2 19.1 0 2.6.3 5.4 1 8.5 0-16.7 6.3-24.5 13-24.5 2.9 0 4.5 1.8 4.5 3.8 0 1.7-1 3-2.7 3-2 0-2.7-1.8-2.4-2.9zm-29.2 2c-.2.5-1 1.1-2.2 1.1-1.6 0-2.8-1.3-2.8-3.1 0-1.7 1.4-3.4 4-3.4 6.3 0 13.8 9.2 13.9 20.9 0 .7 0 2-.2 3h.1c.7-2 1.2-5 1.2-7.2 0-10.2-6.9-20-15-20C2.4 4 0 7.3 0 10c0 3.3 1.9 5.7 4.8 5.7 2.3 0 3.6-1.6 3.6-3zM7.6.6c-.7 0-1 .4-1 .8 0 .6.4 1 1.1 1.2 2.3 1 6.6 1.5 11.5 1.5a70 70 0 0 0 21.4-2.8v-.2c-3.2.2-8.7.6-17.5.6C11.1 1.7 8.7.5 7.6.5zm6.9 4.6c1 .4 5.7 2.5 7.8 10.4.1.4.4.6.7.6.5 0 .7-.4.7-1 0-3.7-2-7-3.7-8.4a8.3 8.3 0 0 0-5.5-1.6zm11.7 1.1a7.1 7.1 0 0 1 6-2v.2c-.7.2-2.6.8-4.4 2.8a13.8 13.8 0 0 0-3 5.2c-.8-3.2.3-5.2 1.3-6.2zM328.9 17.6h.5c.2 0 .5 0 .5-.3 0-.2 0-.3-.4-.3h-.6v.6zm0 1.5h-.6v-2.6h1.2c.2 0 1 0 1 .8 0 .5-.3.6-.5.7l.5 1h-.6l-.4-1h-.6v1zm.4.7a2 2 0 1 0 0-4 2 2 0 0 0 0 4zm0-4.4a2.4 2.4 0 1 1 0 4.8 2.4 2.4 0 0 1 0-4.8z" class="icon-fill" />
  </g>
</svg>
