<?xml version="1.0" encoding="utf-8"?>
<!-- Generator: Adobe Illustrator 22.0.1, SVG Export Plug-In . SVG Version: 6.00 Build 0)  -->
<svg version="1.1" id="Layer_1" xmlns="http://www.w3.org/2000/svg" xmlns:xlink="http://www.w3.org/1999/xlink" x="0px" y="0px"
	 viewBox="0 0 165 58" style="enable-background:new 0 0 165 58;" xml:space="preserve">
<style type="text/css">
	.st0{fill:#DE2626;}
</style>
<g>
	<g>
		<path d="M106.6,33.4h2.9V18c0,0,0.1-4.7-4.6-4.7H94.2v20h5.6V17.9c0-1,0.8-1.8,1.8-1.8c1,0,1.8,0.8,1.8,1.8v12.6
			C103.4,30.5,103,33.7,106.6,33.4"/>
		<path d="M162.2,33.4h2.9V18c0,0,0.1-4.7-4.6-4.7h-10.6v20h5.6V17.9c0-1,0.8-1.8,1.8-1.8c1,0,1.8,0.8,1.8,1.8v12.6
			C159,30.5,158.6,33.7,162.2,33.4"/>
		<path d="M88.4,33.4h2.9V18c0,0,0.1-4.7-4.6-4.7h-4.9V0l-6.4,0v33.4h6.3V17.9c0-1,0.8-1.8,1.8-1.8c1,0,1.8,0.8,1.8,1.8v12.6
			C85.2,30.5,84.8,33.7,88.4,33.4"/>
		<path class="st0" d="M41.9,26.2v-1.9l-5.3,0c0,0,0,0-0.1,0c-0.3,0-2.6,0.1-2.6,2.9l0,0.4c0,0.3,0,0.7-0.1,1
			c-0.3,0.7-0.9,1.2-1.6,1.3c0,0-0.1,0-0.2,0c-0.1,0-0.4,0-0.6-0.1c-0.9-0.2-1.5-1.1-1.5-2V13.9c0-0.7,0.3-1.3,0.8-1.7
			c0.2-0.1,0.4-0.2,0.6-0.3c0.2-0.1,0.4-0.1,0.6-0.1c0.1,0,0.2,0,0.3,0c0.2,0,0.3,0.1,0.5,0.1c0.2,0.1,0.4,0.2,0.6,0.4
			c0.6,0.5,0.7,1.2,0.7,1.6c0,0.1,0,0.3,0,0.3c0,2.3,2.4,2.4,2.6,2.4c0.1,0,0.1,0,0.1,0h5.3v-0.9c0-0.7,0-1.3-0.1-1.8
			c-0.1-0.5-0.2-0.9-0.3-1.2c-0.3-0.9-0.6-1.2-1.1-1.8c-0.6-0.7-1.3-1.1-1.9-1.4c-2.1-1.1-4.7-1.3-6.1-1.3h0c-0.4,0-0.7,0-0.7,0
			c0,0-0.2,0-0.7,0c-1.3,0-7.7,0.2-9.1,4.6l0,0.1c0,0,0,0.1,0,0.1l0,0.1c0,0.1-0.1,0.2-0.1,0.4c-0.1,0.3-0.1,0.4-0.1,0.6l0,0.1
			c-0.1,0.4,0,2.4,0,3.2l0,0l0,7h0c0,0,0,0.1,0,0.3c0,0.3,0,0.7,0,1.1c0,0.2,0,0.3,0,0.5c0,0.2,0,0.4,0,0.5c0,0,0,0.1,0,0.1l0,0
			c0,0.7,0.2,1.4,0.2,1.6c1.3,4.4,6.9,4.9,9.2,4.9c0.4,0,0.7,0,0.7,0c0,0,0.2,0,0.7,0c0.1,0,0.1,0,0.2,0c1.1,0,3.3-0.2,5.3-1
			c1.7-0.7,2.9-1.8,3.5-3.2C41.8,28.4,42,27.5,41.9,26.2z"/>
		<path class="st0" d="M9.3,8.3C5.8,8.3,3.2,9,1.7,10.5c-1.4,1.4-1.4,2.8-1.4,2.9v3.9c-0.1,3,2.8,4.4,2.8,4.4c1.5,1,5.9,0.9,6.1,0.9
			c1,0.1,1.8,0.4,2.2,0.9c0.5,0.6,0.4,1.2,0.4,1.2l0,2.7c0,0.9-0.2,1.6-0.7,2.1C10.4,30.1,9.3,30,9.3,30c-0.1,0-0.2,0-0.3,0
			c-0.3-0.1-0.6-0.2-0.8-0.3c-0.7-0.5-0.9-1.5-0.9-2.1c0-0.2,0-0.3,0-0.4c0-0.1,0-0.1,0-0.2c-0.1-2.6-2.2-2.7-2.2-2.7l-4.9,0l0,0.9
			c-0.1,2.5,0.5,4.5,2,6c2.2,2.2,5.7,2.4,7.2,2.4c0.4,0,0.7,0,0.7,0c3.5,0.1,6-0.7,7.5-2.2c1.4-1.5,1.4-3.1,1.4-3.1v-3.9
			c0.1-3-2.8-4.4-2.8-4.4c-1.5-1-5.9-0.9-6.1-0.9c-1-0.1-1.8-0.4-2.2-0.9c-0.5-0.6-0.4-1.2-0.4-1.2l0-2.7c0-0.9,0.2-1.6,0.7-2.1
			c0.7-0.7,1.8-0.5,1.8-0.5c0.7,0,1.2,0.2,1.6,0.6c0.6,0.7,0.4,1.6,0.4,1.7c0,2.8,2.2,2.8,2.2,2.8h5.1l0-0.1c0.1-2.5-0.5-4.5-2-6
			C14.3,7.9,9.4,8.3,9.3,8.3z"/>
		<path d="M125.9,15.2c-2.3-2.2-6.3-1.9-6.3-1.9c-2.8,0-4.9,0.6-6.1,1.8c-1.1,1.1-1.1,2.3-1.1,2.3v3.1c-0.1,2.4,2.3,3.5,2.3,3.5
			c1.2,0.8,4.7,0.7,4.9,0.7c0.8,0,1.4,0.3,1.8,0.7c0.4,0.4,0.3,1,0.3,1v2.2c0,0.7-0.1,1.3-0.5,1.6c-0.6,0.5-1.4,0.4-1.5,0.4
			c-0.1,0-0.2,0-0.2,0c-0.2,0-0.5-0.1-0.6-0.2c-0.6-0.4-0.7-1.2-0.7-1.6c0-0.2,0-0.3,0-0.3c0-0.1,0-0.1,0-0.2c0-2.1-1.8-2.2-1.8-2.2
			l-4,0l0,0.7c-0.1,2,0.4,3.6,1.6,4.8c1.8,1.7,4.6,1.9,5.8,1.9c0.3,0,0.5,0,0.6,0c2.8,0,4.8-0.6,6-1.8c1.2-1.2,1.1-2.5,1.1-2.5v-3.1
			c0.1-2.4-2.3-3.5-2.3-3.5c-1.2-0.8-4.7-0.7-4.9-0.7c-0.8-0.1-1.4-0.3-1.8-0.7c-0.4-0.4-0.3-1-0.3-1V18c0-0.7,0.1-1.3,0.5-1.6
			c0.6-0.5,1.4-0.4,1.5-0.4c0.6,0,1,0.2,1.2,0.5c0.4,0.5,0.3,1.3,0.3,1.3c0,2.2,1.8,2.3,1.8,2.3h4.1l0-0.1
			C127.6,17.9,127.1,16.3,125.9,15.2z"/>
		<path class="st0" d="M53.2,0v38c0,10.5-10.5,16.3-25.1,16.3C9.4,54.3,0,47.5,0,38.7v-2.4h6.9c2.8,0,3.4,3.9,3.4,3.9s0,0.2,0.6,2.2
			c1.5,5.5,9.4,9.2,17.2,9.2c9.7,0,16.8-6.1,16.8-13.6V0H53.2z"/>
		<g>
			<path d="M54.8,54.4c-0.9,0-1.5-0.5-1.5-1.3c0-0.6,0.4-1.1,0.9-1.3c0.4-0.1,0.8-0.2,1.7-0.2h0.2v-0.2c0-0.6-0.2-0.8-0.8-0.8
				c-0.5,0-0.7,0.2-0.8,0.7h-1.1c0-0.9,0.6-1.3,1.8-1.3c1.3,0,2,0.5,2,1.5v2.9h-1l0-0.6C55.8,54.2,55.4,54.4,54.8,54.4z M55.8,52.2
				c-1,0-1.4,0.2-1.4,0.8c0,0.4,0.2,0.7,0.7,0.7c0.7,0,1-0.4,1-1.3v-0.1C56,52.2,55.9,52.2,55.8,52.2z"/>
			<path d="M60,52.9c0,0.5,0.2,0.7,0.6,0.7c0.1,0,0.2,0,0.5,0v0.7c-0.6,0.1-0.7,0.1-1,0.1c-0.4,0-0.7-0.1-0.9-0.3
				c-0.2-0.2-0.3-0.5-0.3-1.1v-2.2h-0.9V50h0.9v-0.7l1.1-0.6V50h1.1v0.8H60V52.9z"/>
			<path d="M69.6,54.2h-1.3l-1-3l-1,3h-1.3L63.4,50h1.3l1,2.9l1-2.9H68l1,2.9l1-2.9h1.1L69.6,54.2z"/>
			<path d="M73.7,54.4c-1.3,0-2.2-0.9-2.2-2.2c0-1.3,0.9-2.2,2.3-2.2c1.3,0,2.2,0.9,2.2,2.3C76,53.5,75.1,54.4,73.7,54.4z
				 M73.8,50.7c-0.7,0-1,0.5-1,1.4c0,1,0.4,1.5,1,1.5c0.6,0,1-0.5,1-1.4C74.8,51.2,74.4,50.7,73.8,50.7z"/>
			<path d="M77,50h1.2v0.7c0.3-0.6,0.6-0.8,1.4-0.8h0v1c-0.1,0-0.2,0-0.3,0c-0.3,0-0.7,0.1-0.9,0.3c-0.2,0.2-0.3,0.5-0.3,1v2H77V50z
				"/>
			<path d="M83.1,50h1.4l-1.7,1.8l1.9,2.5h-1.5l-1.7-2.3v2.3h-1.2v-6.1h1.2v3.6L83.1,50z"/>
			<path d="M89,54.2h-1.2v-3.4h-0.9V50h0.9v-0.8c0-0.8,0.4-1.2,1.5-1.2c0.1,0,0.3,0,0.5,0l0.2,0v0.8c-0.1,0-0.2,0-0.2,0h0
				c-0.5,0-0.7,0.1-0.7,0.6V50h1v0.8h-1V54.2z"/>
			<path d="M92.5,54.4c-1.3,0-2.2-0.9-2.2-2.2c0-1.3,0.9-2.2,2.3-2.2c1.3,0,2.2,0.9,2.2,2.3C94.8,53.5,93.9,54.4,92.5,54.4z
				 M92.6,50.7c-0.7,0-1,0.5-1,1.4c0,1,0.4,1.5,1,1.5c0.6,0,1-0.5,1-1.4C93.6,51.2,93.2,50.7,92.6,50.7z"/>
			<path d="M95.8,50H97v0.7c0.3-0.6,0.6-0.8,1.4-0.8h0v1c-0.1,0-0.2,0-0.3,0c-0.3,0-0.7,0.1-0.9,0.3c-0.2,0.2-0.3,0.5-0.3,1v2h-1.2
				V50z"/>
			<path d="M102.6,54.4c-0.9,0-1.5-0.5-1.5-1.3c0-0.6,0.4-1.1,0.9-1.3c0.4-0.1,0.8-0.2,1.7-0.2h0.2v-0.2c0-0.6-0.2-0.8-0.8-0.8
				c-0.5,0-0.7,0.2-0.8,0.7h-1.1c0-0.9,0.6-1.3,1.8-1.3c1.3,0,2,0.5,2,1.5v2.9h-1l0-0.6C103.6,54.2,103.2,54.4,102.6,54.4z
				 M103.6,52.2c-1,0-1.4,0.2-1.4,0.8c0,0.4,0.2,0.7,0.7,0.7c0.7,0,1-0.4,1-1.3v-0.1C103.8,52.2,103.7,52.2,103.6,52.2z"/>
			<path d="M109.5,50.5c0.3-0.4,0.6-0.6,1.2-0.6c1.1,0,1.9,0.9,1.9,2.3c0,1.3-0.7,2.1-1.8,2.1c-0.6,0-1.1-0.3-1.3-0.8l0,0.7h-1.1
				v-6.1h1.2V50.5z M110.4,50.6c-0.6,0-0.9,0.5-0.9,1.4c0,1.1,0.3,1.6,1,1.6c0.6,0,0.9-0.5,0.9-1.4c0,0,0-0.1,0-0.1
				C111.4,51.1,111.1,50.6,110.4,50.6z"/>
			<path d="M114.6,52.5c0,0.7,0.4,1.2,1,1.2c0.5,0,0.8-0.2,0.9-0.8h1.1c0,0.9-0.8,1.5-1.9,1.5c-1,0-1.7-0.3-2-1.1
				c-0.2-0.3-0.2-0.7-0.2-1.1c0-1.4,0.8-2.3,2.1-2.3c1.4,0,2.1,0.8,2.1,2.2c0,0,0,0.1,0,0.2h-3.1V52.5z M115.6,50.6
				c-0.6,0-0.9,0.4-1,1.1h1.8C116.4,51,116.1,50.6,115.6,50.6z"/>
			<path d="M120.2,52.9c0,0.5,0.2,0.7,0.6,0.7c0.1,0,0.2,0,0.5,0v0.7c-0.6,0.1-0.7,0.1-1,0.1c-0.4,0-0.7-0.1-0.9-0.3
				c-0.2-0.2-0.3-0.5-0.3-1.1v-2.2h-0.9V50h0.9v-0.7l1.1-0.6V50h1.1v0.8h-1.1V52.9z"/>
			<path d="M123.8,52.9c0,0.5,0.2,0.7,0.6,0.7c0.1,0,0.2,0,0.5,0v0.7c-0.6,0.1-0.7,0.1-1,0.1c-0.4,0-0.7-0.1-0.9-0.3
				c-0.2-0.2-0.3-0.5-0.3-1.1v-2.2h-0.9V50h0.9v-0.7l1.1-0.6V50h1.1v0.8h-1.1V52.9z"/>
			<path d="M126.6,52.5c0,0.7,0.4,1.2,1,1.2c0.5,0,0.8-0.2,0.9-0.8h1.1c0,0.9-0.8,1.5-1.9,1.5c-1,0-1.7-0.3-2-1.1
				c-0.2-0.3-0.2-0.7-0.2-1.1c0-1.4,0.8-2.3,2.1-2.3c1.4,0,2.1,0.8,2.1,2.2c0,0,0,0.1,0,0.2h-3.1V52.5z M127.6,50.6
				c-0.6,0-0.9,0.4-1,1.1h1.8C128.5,51,128.1,50.6,127.6,50.6z"/>
			<path d="M130.6,50h1.2v0.7c0.3-0.6,0.6-0.8,1.4-0.8h0v1c-0.1,0-0.2,0-0.3,0c-0.3,0-0.7,0.1-0.9,0.3c-0.2,0.2-0.3,0.5-0.3,1v2
				h-1.2V50z"/>
			<path d="M141.8,54.2h-1.3l-1-3l-1,3h-1.3l-1.5-4.2h1.3l1,2.9l1-2.9h1.3l1,2.9l1-2.9h1.1L141.8,54.2z"/>
			<path d="M145.9,54.4c-1.3,0-2.2-0.9-2.2-2.2c0-1.3,0.9-2.2,2.3-2.2c1.3,0,2.2,0.9,2.2,2.3C148.2,53.5,147.3,54.4,145.9,54.4z
				 M146,50.7c-0.7,0-1,0.5-1,1.4c0,1,0.4,1.5,1,1.5c0.6,0,1-0.5,1-1.4C147,51.2,146.6,50.7,146,50.7z"/>
			<path d="M149.2,50h1.2v0.7c0.3-0.6,0.6-0.8,1.4-0.8h0v1c-0.1,0-0.2,0-0.3,0c-0.3,0-0.7,0.1-0.9,0.3c-0.2,0.2-0.3,0.5-0.3,1v2
				h-1.2V50z"/>
			<path d="M153.7,54.2h-1.2v-6.1h1.2V54.2z"/>
			<path d="M159,54.2h-1.2v-0.6c-0.4,0.5-0.7,0.7-1.3,0.7c-1.1,0-1.8-0.9-1.8-2.3c0-1.3,0.7-2.2,1.8-2.2c0.6,0,1,0.2,1.3,0.7v-2.5
				h1.2V54.2z M156.8,53.6c0.6,0,1-0.5,1-1.4c0-0.3,0-0.6-0.1-0.8c-0.1-0.4-0.5-0.8-0.9-0.8c-0.6,0-1,0.5-1,1.4c0,0,0,0.1,0,0.1
				C155.9,53.1,156.2,53.6,156.8,53.6z"/>
		</g>
		<g>
			<path d="M57.5,44.4h-1.3l2.4-6.1h1.6l2.3,6.1h-1.3l-0.5-1.3H58L57.5,44.4z M60.4,42.1l-1-2.9l-1,2.9H60.4z"/>
			<path d="M66.8,44.4h-1.2V41h-0.9v-0.8h0.9v-0.8c0-0.8,0.4-1.2,1.5-1.2c0.1,0,0.3,0,0.5,0l0.2,0V39c-0.1,0-0.2,0-0.2,0h0
				c-0.5,0-0.7,0.1-0.7,0.6v0.6h1V41h-1V44.4z"/>
			<path d="M69.6,44.6c-0.9,0-1.5-0.5-1.5-1.3c0-0.6,0.4-1.1,0.9-1.3c0.4-0.1,0.8-0.2,1.7-0.2H71v-0.2c0-0.6-0.2-0.8-0.8-0.8
				c-0.5,0-0.7,0.2-0.8,0.7h-1.1c0-0.9,0.6-1.3,1.8-1.3c1.3,0,2,0.5,2,1.5v2.9h-1l0-0.6C70.7,44.4,70.3,44.6,69.6,44.6z M70.7,42.4
				c-1,0-1.4,0.2-1.4,0.8c0,0.4,0.2,0.7,0.7,0.7c0.7,0,1-0.4,1-1.3v-0.1C70.9,42.4,70.8,42.4,70.7,42.4z"/>
			<path d="M73.3,40.2h1.2v0.7c0.3-0.5,0.8-0.8,1.4-0.8c0.6,0,1,0.2,1.3,0.8c0.3-0.5,0.8-0.8,1.4-0.8c1,0,1.5,0.6,1.5,1.7v2.6H79
				v-2.5c0-0.7-0.2-1.1-0.8-1.1c-0.6,0-0.9,0.4-0.9,1.3v2.2h-1.1v-2.7c0-0.6-0.3-0.9-0.8-0.9c-0.6,0-0.9,0.4-0.9,1.2v2.4h-1.2V40.2z
				"/>
			<path d="M82.5,39.3h-1.1v-0.9h1.1V39.3z M82.5,44.4h-1.1v-4.2h1.1V44.4z"/>
			<path d="M84.8,44.4h-1.2v-6.1h1.2V44.4z"/>
			<path d="M87.7,46h-1.1l0.7-1.6l-1.9-4.2h1.3l1.1,2.9l1-2.9H90C88.9,43,88.6,43.6,87.7,46z"/>
			<path d="M96.7,43c0,0.9-0.8,1.6-1.9,1.6c-1.3,0-2.1-0.8-2.1-2.1c0-1.5,0.8-2.3,2.2-2.3c1.2,0,1.8,0.6,1.9,1.6h-1.1
				c-0.1-0.6-0.3-0.8-0.8-0.8c-0.7,0-1,0.4-1,1.4c0,1.1,0.3,1.7,1,1.7c0.5,0,0.8-0.3,0.8-0.9v-0.1L96.7,43L96.7,43z"/>
			<path d="M99.5,44.6c-1.3,0-2.2-0.9-2.2-2.2c0-1.3,0.9-2.2,2.3-2.2c1.3,0,2.2,0.9,2.2,2.3C101.8,43.7,100.9,44.6,99.5,44.6z
				 M99.6,40.9c-0.7,0-1,0.5-1,1.4c0,1,0.4,1.5,1,1.5c0.6,0,1-0.5,1-1.4C100.6,41.4,100.2,40.9,99.6,40.9z"/>
			<path d="M102.8,40.2h1.2v0.7c0.3-0.5,0.8-0.8,1.4-0.8c0.6,0,1,0.2,1.3,0.8c0.3-0.5,0.8-0.8,1.4-0.8c1,0,1.5,0.6,1.5,1.7v2.6h-1.2
				v-2.5c0-0.7-0.2-1.1-0.8-1.1c-0.6,0-0.9,0.4-0.9,1.3v2.2h-1.1v-2.7c0-0.6-0.3-0.9-0.8-0.9c-0.6,0-0.9,0.4-0.9,1.2v2.4h-1.2V40.2z
				"/>
			<path d="M112,46h-1.2v-5.8h1.2v0.6c0.3-0.5,0.7-0.7,1.3-0.7c1.1,0,1.8,0.8,1.8,2.1c0,1.4-0.8,2.3-1.9,2.3c-0.5,0-0.9-0.2-1.2-0.6
				V46z M113,40.9c-0.7,0-1,0.5-1,1.4c0,1,0.3,1.5,1,1.5c0.7,0,1-0.6,1-1.5C113.9,41.4,113.6,40.9,113,40.9z"/>
			<path d="M117.4,44.6c-0.9,0-1.5-0.5-1.5-1.3c0-0.6,0.4-1.1,0.9-1.3c0.4-0.1,0.8-0.2,1.7-0.2h0.2v-0.2c0-0.6-0.2-0.8-0.8-0.8
				c-0.5,0-0.7,0.2-0.8,0.7h-1.1c0-0.9,0.6-1.3,1.8-1.3c1.3,0,2,0.5,2,1.5v2.9h-1l0-0.6C118.4,44.4,118,44.6,117.4,44.6z
				 M118.4,42.4c-1,0-1.4,0.2-1.4,0.8c0,0.4,0.2,0.7,0.7,0.7c0.7,0,1-0.4,1-1.3v-0.1C118.6,42.4,118.5,42.4,118.4,42.4z"/>
			<path d="M121,40.2h1.2v0.7c0.4-0.5,0.8-0.8,1.5-0.8c0.9,0,1.5,0.5,1.5,1.5v2.9H124v-2.5c0-0.7-0.2-1-0.8-1c-0.6,0-1,0.4-1,1.1
				v2.4H121V40.2z"/>
			<path d="M128.1,46H127l0.7-1.6l-1.9-4.2h1.3l1.1,2.9l1-2.9h1.1C129.3,43,129,43.6,128.1,46z"/>
		</g>
	</g>
	<path d="M71.2,15.1c-1.2-1.1-3-1.6-4.3-1.7c-1.4-0.2-2.5-0.1-2.5-0.1c0,0-1.1-0.1-2.5,0.1c-1.3,0.2-3,0.6-4.3,1.7
		c-0.9,0.9-1.4,2-1.5,3.4v9.7c0,1.4,0.5,2.5,1.5,3.4c1.2,1.1,3,1.6,4.3,1.7c1.3,0.2,2.4,0.1,2.5,0.1c0,0,0.2,0,0.5,0
		c0.5,0,1.2,0,1.9-0.1c1.3-0.2,3-0.6,4.3-1.7c0.9-0.9,1.4-2,1.5-3.4v-9.7C72.6,17.1,72.1,16,71.2,15.1z M66.2,28.9
		c0,1-0.8,1.8-1.8,1.8c-1,0-1.8-0.8-1.8-1.8V17.6c0-1,0.8-1.8,1.8-1.8c1,0,1.8,0.8,1.8,1.8V28.9z"/>
	<path d="M145.3,15.1c-1.2-1.1-3-1.6-4.3-1.7c-1.4-0.2-2.5-0.1-2.5-0.1c0,0-1.1-0.1-2.5,0.1c-1.3,0.2-3,0.6-4.3,1.7
		c-0.9,0.9-1.4,2-1.5,3.4v9.7c0,1.4,0.5,2.5,1.5,3.4c1.2,1.1,3,1.6,4.3,1.7c1.3,0.2,2.4,0.1,2.5,0.1c0,0,0.2,0,0.5,0
		c0.5,0,1.2,0,1.9-0.1c1.3-0.2,3-0.6,4.3-1.7c0.9-0.9,1.4-2,1.5-3.4v-9.7C146.8,17.1,146.3,16,145.3,15.1z M140.3,28.9
		c0,1-0.8,1.8-1.8,1.8c-1,0-1.8-0.8-1.8-1.8V17.6c0-1,0.8-1.8,1.8-1.8c1,0,1.8,0.8,1.8,1.8V28.9z"/>
</g>
</svg>
