<?xml version="1.0" encoding="UTF-8" standalone="no"?>
<!-- Created with Inkscape (http://www.inkscape.org/) -->

<svg
   version="1.1"
   id="svg2"
   width="817.21332"
   height="233.16"
   viewBox="0 0 817.21332 233.16"
   sodipodi:docname="WeEnergiesFoundation_172horz.eps"
   xmlns:inkscape="http://www.inkscape.org/namespaces/inkscape"
   xmlns:sodipodi="http://sodipodi.sourceforge.net/DTD/sodipodi-0.dtd"
   xmlns="http://www.w3.org/2000/svg"
   xmlns:svg="http://www.w3.org/2000/svg">
  <defs
     id="defs6" />
  <sodipodi:namedview
     id="namedview4"
     pagecolor="#ffffff"
     bordercolor="#000000"
     borderopacity="0.25"
     inkscape:showpageshadow="2"
     inkscape:pageopacity="0.0"
     inkscape:pagecheckerboard="0"
     inkscape:deskcolor="#d1d1d1" />
  <g
     id="g8"
     inkscape:groupmode="layer"
     inkscape:label="ink_ext_XXXXXX"
     transform="matrix(1.3333333,0,0,-1.3333333,0,233.16)">
    <g
       id="g10"
       transform="scale(0.1)">
      <path
         d="m 2525.16,1530.35 h 113.15 l 68.62,-410.79 h 1.45 l 83.23,410.79 h 129.94 l 78.83,-410.79 h 1.46 l 65.71,410.79 h 108.03 l -116.8,-584.995 h -121.91 l -82.49,427.805 h -1.46 l -91.25,-427.805 h -119.71 l -116.8,584.995"
         style="fill:#a7a5a6;fill-opacity:1;fill-rule:nonzero;stroke:none"
         id="path12" />
      <path
         d="m 3387.51,1195.72 c 0,39.71 1.48,96.42 -48.4,96.42 -48.4,0 -47.65,-61.58 -47.65,-96.42 z m -96.05,-64.01 c 0,-48.62 1.48,-121.53 47.65,-121.53 37.23,0 44.69,38.89 44.69,72.91 h 106.46 c -1.48,-44.55 -14.88,-81.02 -40.19,-106.133 -24.57,-25.121 -61.82,-39.703 -110.96,-39.703 -135.53,0 -153.4,89.936 -153.4,217.956 0,111.81 14.91,207.42 153.4,207.42 141.49,0 157.11,-99.66 153.4,-230.92 h -201.05"
         style="fill:#a7a5a6;fill-opacity:1;fill-rule:nonzero;stroke:none"
         id="path14" />
      <path
         d="m 3677.9,945.355 v 584.995 h 293.38 v -89.94 h -180.94 v -144.22 h 166.8 v -89.94 h -166.8 v -170.96 h 186.9 V 945.355 H 3677.9"
         style="fill:#a7a5a6;fill-opacity:1;fill-rule:nonzero;stroke:none"
         id="path16" />
      <path
         d="m 4135.07,1313.21 h 1.5 c 20.84,36.46 49.14,49.42 88.62,49.42 49.88,0 93.8,-32.41 93.8,-89.13 V 945.355 h -104.98 v 281.965 c 0,36.46 -5.95,64.82 -39.47,64.82 -33.51,0 -39.47,-28.36 -39.47,-64.82 V 945.355 h -104.98 v 409.165 h 104.98 v -41.31"
         style="fill:#a7a5a6;fill-opacity:1;fill-rule:nonzero;stroke:none"
         id="path18" />
      <path
         d="m 4572.92,1195.72 c 0,39.71 1.48,96.42 -48.4,96.42 -48.42,0 -47.65,-61.58 -47.65,-96.42 z m -96.05,-64.01 c 0,-48.62 1.48,-121.53 47.65,-121.53 37.23,0 44.67,38.89 44.67,72.91 h 106.48 c -1.48,-44.55 -14.9,-81.02 -40.21,-106.133 -24.57,-25.121 -61.8,-39.703 -110.94,-39.703 -135.53,0 -153.4,89.936 -153.4,217.956 0,111.81 14.89,207.42 153.4,207.42 141.47,0 157.11,-99.66 153.38,-230.92 h -201.03"
         style="fill:#a7a5a6;fill-opacity:1;fill-rule:nonzero;stroke:none"
         id="path20" />
      <path
         d="m 4829.79,1354.52 v -52.66 h 1.49 c 19.37,47 55.12,60.77 97.56,60.77 v -102.09 c -92.35,6.48 -93.83,-51.86 -93.83,-92.37 V 945.355 h -105 v 409.165 h 99.78"
         style="fill:#a7a5a6;fill-opacity:1;fill-rule:nonzero;stroke:none"
         id="path22" />
      <path
         d="m 5109.76,1021.52 c 37.98,0 43.18,42.94 43.18,129.64 0,89.93 -3.71,140.98 -42.44,140.98 -39.46,0 -46.15,-29.98 -46.15,-154.76 0,-38.08 -5.22,-115.86 45.41,-115.86 z m 148.18,333 V 928.34 c 0,-28.36 1.48,-140.168 -142.97,-140.168 -78.18,0 -145.19,21.871 -147.44,121.535 h 102.77 c 0,-17.019 2.23,-31.602 8.93,-41.324 6.7,-10.531 18.61,-16.207 35,-16.207 26.05,0 38.71,26.738 38.71,68.062 v 78.594 h -1.48 c -15.63,-31.602 -45.42,-47.805 -79.67,-47.805 -115.43,0 -110.22,115.053 -110.22,207.423 0,89.94 1.51,204.18 110.96,204.18 37.23,0 69.26,-17.83 84.14,-55.91 h 1.48 v 47.8 h 99.79"
         style="fill:#a7a5a6;fill-opacity:1;fill-rule:nonzero;stroke:none"
         id="path24" />
      <path
         d="m 5434.4,945.355 h -105 v 409.165 h 105 z m 0,584.995 v -89.94 h -105 v 89.94 h 105"
         style="fill:#a7a5a6;fill-opacity:1;fill-rule:nonzero;stroke:none"
         id="path26" />
      <path
         d="m 5698,1195.72 c 0,39.71 1.48,96.42 -48.4,96.42 -48.42,0 -47.66,-61.58 -47.66,-96.42 z m -96.06,-64.01 c 0,-48.62 1.49,-121.53 47.66,-121.53 37.23,0 44.67,38.89 44.67,72.91 h 106.48 c -1.48,-44.55 -14.9,-81.02 -40.21,-106.133 -24.57,-25.121 -61.8,-39.703 -110.94,-39.703 -135.53,0 -153.4,89.936 -153.4,217.956 0,111.81 14.88,207.42 153.4,207.42 141.46,0 157.11,-99.66 153.38,-230.92 h -201.04"
         style="fill:#a7a5a6;fill-opacity:1;fill-rule:nonzero;stroke:none"
         id="path28" />
      <path
         d="m 5944.46,1076.61 c -0.76,-18.63 0,-36.45 5.2,-49.42 5.96,-12.96 17.13,-19.45 37.99,-19.45 20.84,0 38.71,14.59 38.71,42.14 0,86.69 -184.67,67.25 -184.67,197.7 0,88.31 80.43,115.05 148.18,115.05 71.49,0 136.27,-37.27 130.32,-125.59 h -102.76 c 0,28.36 -2.99,45.38 -10.43,52.67 -6.7,7.29 -15.64,8.91 -26.79,8.91 -23.09,0 -35.75,-16.2 -35.75,-43.75 0,-64.82 184.67,-61.58 184.67,-192.84 0,-71.3 -53.61,-124.776 -140.74,-124.776 -91.58,0 -152.66,25.117 -146.7,139.356 h 102.77"
         style="fill:#a7a5a6;fill-opacity:1;fill-rule:nonzero;stroke:none"
         id="path30" />
      <path
         d="m 2573.64,115.359 v 590.282 h 298.41 v -90.75 h -178.26 v -151.25 h 170.3 v -90.75 h -170.3 V 115.359 h -120.15"
         style="fill:#f3632a;fill-opacity:1;fill-rule:nonzero;stroke:none"
         id="path32" />
      <path
         d="m 3108.68,333.648 c 0,85.84 -3.85,129.172 -49.82,129.172 -45.99,0 -49.82,-43.332 -49.82,-129.172 0,-125.91 9.95,-152.878 49.82,-152.878 39.84,0 49.82,26.968 49.82,152.878 z m -207.72,-6.539 c 0,112.821 15.33,209.301 157.9,209.301 142.56,0 157.89,-96.48 157.89,-209.301 0,-129.168 -18.4,-219.918 -157.89,-219.918 -139.5,0 -157.9,90.75 -157.9,219.918"
         style="fill:#f3632a;fill-opacity:1;fill-rule:nonzero;stroke:none"
         id="path34" />
      <path
         d="m 3471.22,157.059 h -1.52 c -21.47,-36.797 -50.59,-49.868 -91.21,-49.868 -51.35,0 -96.59,32.7 -96.59,89.93 V 528.23 h 108.07 V 242.078 c 0,-36.789 6.13,-63.769 40.63,-63.769 34.49,0 40.62,26.98 40.62,63.769 V 528.23 h 108.07 V 197.121 c 0,-26.98 1.54,-54.781 3.83,-81.762 h -111.9 v 41.7"
         style="fill:#f3632a;fill-opacity:1;fill-rule:nonzero;stroke:none"
         id="path36" />
      <path
         d="m 3761.73,486.531 h 1.52 c 21.47,36.797 50.59,49.879 91.21,49.879 51.35,0 96.58,-32.711 96.58,-89.941 v -331.11 h -108.06 v 284.512 c 0,36.789 -6.13,65.41 -40.63,65.41 -34.49,0 -40.62,-28.621 -40.62,-65.41 V 115.359 H 3653.66 V 528.23 h 108.07 v -41.699"
         style="fill:#f3632a;fill-opacity:1;fill-rule:nonzero;stroke:none"
         id="path38" />
      <path
         d="m 4213.19,325.48 c 0,82.571 0.77,139.801 -43.69,139.801 -46.74,0 -45.97,-57.23 -45.97,-139.801 0,-103.839 6.89,-147.171 45.97,-147.171 36.8,0 43.69,43.332 43.69,147.171 z m 5.37,-210.121 v 45.782 h -1.54 c -19.92,-40.059 -49.8,-53.95 -91.19,-53.95 -111.91,0 -108.09,132.438 -108.09,217.469 0,83.391 -3.06,211.75 105.79,211.75 39.08,0 65.91,-12.269 88.14,-47.43 h 1.52 v 216.661 h 108.07 V 115.359 h -102.7"
         style="fill:#f3632a;fill-opacity:1;fill-rule:nonzero;stroke:none"
         id="path40" />
      <path
         d="m 4491.44,243.719 c 0,-29.43 4.6,-65.41 39.86,-65.41 63.61,0 53.65,91.57 53.65,136.531 -53.65,-2.449 -93.51,2.461 -93.51,-71.121 z m 199.27,-51.5 c 0,-25.36 3.07,-51.52 5.37,-76.86 h -100.41 l -4.59,54.782 h -1.54 c -22.99,-42.512 -54.41,-62.95 -101.17,-62.95 -75.12,0 -102.7,59.668 -102.7,131.629 0,136.532 98.87,142.25 199.28,140.61 v 31.89 c 0,35.149 -4.61,60.5 -43.69,60.5 -37.56,0 -40.63,-30.25 -40.63,-62.949 h -105.76 c 0,49.867 14.55,81.75 39.85,100.551 24.53,19.629 59.78,26.988 101.17,26.988 137.21,0 154.82,-62.949 154.82,-138.172 V 192.219"
         style="fill:#f3632a;fill-opacity:1;fill-rule:nonzero;stroke:none"
         id="path42" />
      <path
         d="m 4736.73,528.23 h 43.69 v 65.399 l 108.07,51.519 V 528.23 h 55.95 v -71.128 h -55.95 V 236.359 c 0,-31.07 -0.77,-51.507 34.49,-51.507 6.89,0 13.79,0 19.16,1.636 v -71.129 c -14.57,-1.629 -29.9,-4.089 -55.96,-4.089 -93.49,0 -105.76,66.23 -105.76,91.57 v 254.262 h -43.69 v 71.128"
         style="fill:#f3632a;fill-opacity:1;fill-rule:nonzero;stroke:none"
         id="path44" />
      <path
         d="M 5110.77,115.359 H 5002.71 V 528.23 h 108.06 z m 0,590.282 v -90.75 h -108.06 v 90.75 h 108.06"
         style="fill:#f3632a;fill-opacity:1;fill-rule:nonzero;stroke:none"
         id="path46" />
      <path
         d="m 5393.6,333.648 c 0,85.84 -3.82,129.172 -49.82,129.172 -45.98,0 -49.81,-43.332 -49.81,-129.172 0,-125.91 9.97,-152.878 49.81,-152.878 39.86,0 49.82,26.968 49.82,152.878 z m -207.71,-6.539 c 0,112.821 15.33,209.301 157.89,209.301 142.56,0 157.89,-96.48 157.89,-209.301 0,-129.168 -18.4,-219.918 -157.89,-219.918 -139.49,0 -157.89,90.75 -157.89,219.918"
         style="fill:#f3632a;fill-opacity:1;fill-rule:nonzero;stroke:none"
         id="path48" />
      <path
         d="m 5674.91,486.531 h 1.53 c 21.46,36.797 50.58,49.879 91.21,49.879 51.34,0 96.58,-32.711 96.58,-89.941 v -331.11 h -108.07 v 284.512 c 0,36.789 -6.13,65.41 -40.62,65.41 -34.5,0 -40.63,-28.621 -40.63,-65.41 V 115.359 H 5566.85 V 528.23 h 108.06 v -41.699"
         style="fill:#f3632a;fill-opacity:1;fill-rule:nonzero;stroke:none"
         id="path50" />
      <path
         d="m 1999.89,451.5 c -0.08,12.191 -2.66,22.891 -7.66,32.109 -5.08,9.301 -11.87,16.493 -20.47,21.653 -8.59,5.226 -18.2,7.886 -28.98,7.968 -10.94,-0.082 -20.7,-2.742 -29.3,-7.968 -8.67,-5.16 -15.47,-12.352 -20.55,-21.653 -5,-9.218 -7.57,-19.918 -7.73,-32.109 0.08,-11.48 2.42,-21.871 7.03,-31.09 4.61,-9.301 11.25,-16.719 19.77,-22.191 8.59,-5.547 18.83,-8.36 30.78,-8.508 10.78,0.07 20.39,2.73 28.98,7.891 8.6,5.148 15.39,12.339 20.47,21.636 5,9.223 7.58,20 7.66,32.262 z m 16.01,0 c -0.15,-15.078 -3.59,-28.199 -10.23,-39.371 -6.72,-11.168 -15.55,-19.848 -26.56,-26.02 -11.02,-6.168 -23.13,-9.289 -36.33,-9.371 -14.45,0.153 -27.19,3.434 -38.2,9.922 -11.02,6.481 -19.61,15.309 -25.86,26.481 -6.18,11.25 -9.38,23.988 -9.46,38.359 0.16,15.078 3.6,28.211 10.24,39.301 6.64,11.179 15.54,19.847 26.64,26.019 11.01,6.168 23.28,9.301 36.64,9.379 13.2,-0.078 25.31,-3.211 36.33,-9.379 11.01,-6.172 19.84,-14.84 26.56,-26.019 6.64,-11.09 10.08,-24.223 10.23,-39.301 z m -87.97,4.141 h 15.24 c 5.23,-0.153 9.69,0.468 13.44,2.031 3.67,1.566 5.54,5.238 5.7,11.019 -0.23,4.84 -2.19,7.887 -5.86,9.297 -3.75,1.403 -7.73,2.032 -12.11,1.871 h -16.41 z m 0,-11.563 v -35.387 h -13.51 v 82.739 h 31.33 c 10,0.082 17.5,-1.801 22.58,-5.551 5.07,-3.828 7.57,-9.918 7.57,-18.207 -0.07,-7.422 -2.18,-12.891 -6.09,-16.402 -3.98,-3.52 -9.14,-5.551 -15.47,-6.168 l 23.2,-36.411 h -15.39 l -21.4,35.387 h -12.82"
         style="fill:#f3632a;fill-opacity:1;fill-rule:evenodd;stroke:none"
         id="path52" />
      <path
         d="m 1721.16,1173.62 c -137.26,0 -257.81,-39.82 -345.4,-117.12 -0.16,-0.12 -0.22,0.03 -0.34,-0.07 l 57.72,104.96 h -252.72 c 0,0 -159.02,-336.429 -166.63,-352.562 -0.21,-0.383 -0.23,-0.07 -0.23,-0.07 10.47,58.203 63.26,352.632 63.26,352.632 H 789.527 c 0,0 -172.894,-349.222 -172.867,-348.89 0.113,0.234 -0.097,0.117 -0.027,0.293 14.523,65.039 77.781,348.597 77.781,348.597 H 442.809 L 356.391,563.789 h 316.007 c 0,0 146.879,295.457 173.082,348.074 l 0.067,-0.105 -56.969,-347.969 h 315.992 l 133.03,242.098 c -0.01,-0.282 0.34,-0.164 0.3,-0.574 -34.79,-189.614 95.04,-253.723 261.11,-253.723 233.03,0 367.14,71.82 432.66,204.316 0.14,0.449 0.4,0.996 0.59,1.446 H 1668.75 C 1646.5,715.27 1608.2,696.52 1574.6,696.52 c -59.62,0 -78.06,29.23 -56.34,97.062 l 5.65,17.531 h 429.96 c 0.68,1.817 24.32,76.629 24.32,76.629 67.15,209.298 -20.86,285.878 -257.03,285.878 z m 4.36,-230.37 -2.58,-8.164 h -159.19 l 2.55,8.164 c 18.08,56.145 59.74,85.42 108.28,85.42 47.23,0 68.99,-29.275 50.94,-85.42 v 0"
         style="fill:#ffffff;fill-opacity:1;fill-rule:nonzero;stroke:none"
         id="path54" />
      <path
         d="M 1992.91,942.684 C 2111.13,1406.55 1787.66,1743.17 1266.65,1748.64 732.051,1754.28 180.754,1367.43 35.4063,884.559 -110,401.762 205.629,5.71875 740.348,0.0703125 1234.19,-5.16797 1736.15,312.891 1925.4,743.68 c 0.1,0.308 -0.37,-0.379 -0.24,-0.129 -71.41,-123.699 -193.2,-191.961 -426.15,-191.961 -166.07,0 -295.8,64.371 -261.07,254.055 0.04,0.398 0.32,0.242 -0.34,0.242 -0.56,0 -133.03,-242.098 -133.03,-242.098 H 788.609 l 56.938,347.969 -0.067,0.105 C 819.277,859.246 672.398,563.789 672.398,563.789 H 356.422 l 86.433,597.601 h 251.602 c 0,0 -63.301,-283.558 -77.797,-348.597 -0.097,-0.176 0.113,-0.059 0.113,-0.293 -0.14,-0.332 172.754,348.89 172.754,348.89 h 287.293 c 0,0 -52.79,-294.429 -63.26,-352.632 0,0 0.02,-0.313 0.23,0.07 7.61,16.133 166.63,352.562 166.63,352.562 h 252.72 l -57.72,-104.96 c 0.12,0.1 0.18,-0.05 0.26,0.07 87.67,77.3 208.22,117.17 345.42,117.17 162.19,0 310.25,-30.72 271.81,-230.518 0,0.293 -0.21,-0.82 0,-0.468 z M 1518.26,793.582 c -21.78,-67.832 -3.36,-97.062 56.34,-97.062 33.6,0 71.9,18.75 94.15,60.832 h 263.51 c 7.77,17.773 14.99,35.656 21.64,53.761 h -429.99 l -5.65,-17.531 z m 156.29,235.088 c 47.21,0 68.91,-29.275 50.87,-85.42 l -2.59,-8.164 h -159.19 l 2.61,8.164 c 18.05,56.145 59.73,85.42 108.3,85.42 v 0"
         style="fill:#f3632a;fill-opacity:1;fill-rule:nonzero;stroke:none"
         id="path56" />
    </g>
  </g>
</svg>
