<?xml version="1.0" encoding="UTF-8"?>
<svg id="Layer_1" data-name="Layer 1" xmlns="http://www.w3.org/2000/svg" viewBox="0 0 2150.09 2193.17">
  <defs>
    <style>
      .cls-1 {
        fill: #fff;
      }

      .cls-2 {
        fill: #4b3995;
      }

      .cls-3 {
        stroke: #4b3995;
        stroke-miterlimit: 10;
        stroke-width: 300px;
      }

      .cls-3, .cls-4 {
        fill: none;
      }

      .cls-5 {
        fill: #4b3995;
      }

      .cls-6 {
        fill: #4b3995;
      }
    </style>
  </defs>
  <path class="cls-4" d="M667.08,1070.55l2.02,4.06,6.57-6s-3.02,2.15-8.6,1.94Z"/>
  <path class="cls-2" d="M579.28,1135.58c-.35,.73-.86,1.33-1.46,1.83l1.46-1.83Z"/>
  <path class="cls-2" d="M644.82,1096.09l-1.43,1.8c.35-.72,.84-1.31,1.43-1.8Z"/>
  <path class="cls-2" d="M644.82,1096.09l-1.43,1.8c.35-.72,.84-1.31,1.43-1.8Z"/>
  <path class="cls-2" d="M579.28,1135.58c-.35,.73-.86,1.33-1.46,1.83l1.46-1.83Z"/>
  <g>
    <path class="cls-6" d="M721.72,916.78s-6.8-.71-10.28,2.2h0c-.59,.49-1.08,1.08-1.43,1.8l-59.53,74.75-13.1-26.36-3.2-6.69s6.77,.71,10.26-2.18c.6-.5,1.11-1.1,1.46-1.83l59.53-74.75,13.1,26.36,3.2,6.7Z"/>
    <rect class="cls-6" x="543.64" y="866.82" width="252.3" height="105.58" rx="12" ry="12" transform="translate(-325.89 369.23) rotate(-25)"/>
    <rect class="cls-6" x="650" y="1094.89" width="252.3" height="105.58" rx="12" ry="12" transform="translate(-412.31 435.54) rotate(-25)"/>
    <path class="cls-6" d="M748.97,972.69s-6.8-.71-10.28,2.2h0c-.59,.49-1.08,1.08-1.43,1.8l-59.53,74.75-13.1-26.36-3.2-6.69s6.77,.71,10.26-2.18c.6-.5,1.11-1.1,1.46-1.83l59.53-74.75,13.1,26.36,3.2,6.7Z"/>
    <path class="cls-6" d="M775.65,1029.9s-6.8-.71-10.28,2.2h0c-.59,.49-1.08,1.08-1.43,1.8l-59.53,74.75-13.1-26.36-3.2-6.69s6.77,.71,10.26-2.18c.6-.5,1.11-1.1,1.46-1.83l59.53-74.75,13.1,26.36,3.2,6.7Z"/>
    <path class="cls-6" d="M802.33,1087.11s-6.8-.71-10.28,2.2h0c-.59,.49-1.08,1.08-1.43,1.8l-59.53,74.75-13.1-26.36-3.2-6.69s6.77,.71,10.26-2.18c.6-.5,1.11-1.1,1.46-1.83l59.53-74.75,13.1,26.36,3.2,6.7Z"/>
    <path class="cls-6" d="M846.1,1180.99s-6.8-.71-10.28,2.2h0c-.59,.49-1.08,1.08-1.43,1.8l-59.53,74.75-13.1-26.36-3.2-6.69s6.77,.71,10.26-2.18c.6-.5,1.11-1.1,1.46-1.83l59.53-74.75,13.1,26.36,3.2,6.7Z"/>
    <path class="cls-6" d="M873.02,1238.72s-6.8-.71-10.28,2.2h0c-.59,.49-1.08,1.08-1.43,1.8l-59.53,74.75-13.1-26.36-3.2-6.69s6.77,.71,10.26-2.18c.6-.5,1.11-1.1,1.46-1.83l59.53-74.75,13.1,26.36,3.2,6.7Z"/>
    <path class="cls-6" d="M899.09,1294.62s-6.8-.71-10.28,2.2h0c-.59,.49-1.08,1.08-1.43,1.8l-59.53,74.75-13.1-26.36-3.2-6.69s6.77,.71,10.26-2.18c.6-.5,1.11-1.1,1.46-1.83l59.53-74.75,13.1,26.36,3.2,6.7Z"/>
  </g>
  <g>
    <path class="cls-6" d="M1117.92,961.16s-3.83-5.67-8.29-6.46h0c-.75-.14-1.52-.14-2.3,.05l-95.53,2.45,11.77-26.98,3.07-6.75s3.81,5.64,8.27,6.46c.77,.14,1.56,.14,2.34-.06l95.53-2.45-11.77,26.98-3.08,6.76Z"/>
    <rect class="cls-6" x="956.23" y="870.41" width="252.3" height="105.58" rx="12" ry="12" transform="translate(491.57 -370.94) rotate(25)"/>
    <rect class="cls-6" x="849.88" y="1098.48" width="252.3" height="105.58" rx="12" ry="12" transform="translate(577.99 -304.62) rotate(25)"/>
    <path class="cls-6" d="M1092.61,1017.97s-3.83-5.67-8.29-6.46h0c-.75-.14-1.52-.14-2.3,.05l-95.53,2.45,11.77-26.98,3.07-6.75s3.81,5.64,8.27,6.46c.77,.14,1.56,.14,2.34-.06l95.53-2.45-11.77,26.98-3.08,6.76Z"/>
    <path class="cls-6" d="M1065.93,1075.18s-3.83-5.67-8.29-6.46h0c-.75-.14-1.52-.14-2.3,.05l-95.53,2.45,11.77-26.98,3.07-6.75s3.81,5.64,8.27,6.46c.77,.14,1.56,.14,2.34-.06l95.53-2.45-11.77,26.98-3.08,6.76Z"/>
    <path class="cls-6" d="M1039.25,1132.4s-3.83-5.67-8.29-6.46h0c-.75-.14-1.52-.14-2.3,.05l-95.53,2.45,11.77-26.98,3.07-6.75s3.81,5.64,8.27,6.46c.77,.14,1.56,.14,2.34-.06l95.53-2.45-11.77,26.98-3.08,6.76Z"/>
    <path class="cls-6" d="M995.48,1226.27s-3.83-5.67-8.29-6.46h0c-.75-.14-1.52-.14-2.3,.05l-95.53,2.45,11.77-26.98,3.07-6.75s3.81,5.64,8.27,6.46c.77,.14,1.56,.14,2.34-.06l95.53-2.45-11.77,26.98-3.08,6.76Z"/>
    <path class="cls-6" d="M968.56,1284s-3.83-5.67-8.29-6.46h0c-.75-.14-1.52-.14-2.3,.05l-95.53,2.45,11.77-26.98,3.07-6.75s3.81,5.64,8.27,6.46c.77,.14,1.56,.14,2.34-.06l95.53-2.45-11.77,26.98-3.08,6.76Z"/>
    <path class="cls-6" d="M942.49,1339.91s-3.83-5.67-8.29-6.46h0c-.75-.14-1.52-.14-2.3,.05l-95.53,2.45,11.77-26.98,3.07-6.75s3.81,5.64,8.27,6.46c.77,.14,1.56,.14,2.34-.06l95.53-2.45-11.77,26.98-3.08,6.76Z"/>
  </g>
  <g>
    <path class="cls-6" d="M1115.65,921.69s-6.8-.71-10.28,2.2h0c-.59,.49-1.08,1.08-1.43,1.8l-59.53,74.75-13.1-26.36-3.2-6.69s6.77,.71,10.26-2.18c.6-.5,1.11-1.1,1.46-1.83l59.53-74.75,13.1,26.36,3.2,6.7Z"/>
    <rect class="cls-6" x="937.57" y="871.73" width="252.3" height="105.58" rx="12" ry="12" transform="translate(-291.06 536.17) rotate(-25)"/>
    <rect class="cls-6" x="1043.92" y="1099.8" width="252.3" height="105.58" rx="12" ry="12" transform="translate(-377.48 602.48) rotate(-25)"/>
    <path class="cls-6" d="M1142.9,977.6s-6.8-.71-10.28,2.2h0c-.59,.49-1.08,1.08-1.43,1.8l-59.53,74.75-13.1-26.36-3.2-6.69s6.77,.71,10.26-2.18c.6-.5,1.11-1.1,1.46-1.83l59.53-74.75,13.1,26.36,3.2,6.7Z"/>
    <path class="cls-6" d="M1169.58,1034.81s-6.8-.71-10.28,2.2h0c-.59,.49-1.08,1.08-1.43,1.8l-59.53,74.75-13.1-26.36-3.2-6.69s6.77,.71,10.26-2.18c.6-.5,1.11-1.1,1.46-1.83l59.53-74.75,13.1,26.36,3.2,6.7Z"/>
    <path class="cls-6" d="M1196.26,1092.02s-6.8-.71-10.28,2.2h0c-.59,.49-1.08,1.08-1.43,1.8l-59.53,74.75-13.1-26.36-3.2-6.69s6.77,.71,10.26-2.18c.6-.5,1.11-1.1,1.46-1.83l59.53-74.75,13.1,26.36,3.2,6.7Z"/>
    <path class="cls-6" d="M1240.03,1185.9s-6.8-.71-10.28,2.2h0c-.59,.49-1.08,1.08-1.43,1.8l-59.53,74.75-13.1-26.36-3.2-6.69s6.77,.71,10.26-2.18c.6-.5,1.11-1.1,1.46-1.83l59.53-74.75,13.1,26.36,3.2,6.7Z"/>
    <path class="cls-6" d="M1266.95,1243.63s-6.8-.71-10.28,2.2h0c-.59,.49-1.08,1.08-1.43,1.8l-59.53,74.75-13.1-26.36-3.2-6.69s6.77,.71,10.26-2.18c.6-.5,1.11-1.1,1.46-1.83l59.53-74.75,13.1,26.36,3.2,6.7Z"/>
    <path class="cls-6" d="M1293.02,1299.53s-6.8-.71-10.28,2.2h0c-.59,.49-1.08,1.08-1.43,1.8l-59.53,74.75-13.1-26.36-3.2-6.69s6.77,.71,10.26-2.18c.6-.5,1.11-1.1,1.46-1.83l59.53-74.75,13.1,26.36,3.2,6.7Z"/>
  </g>
  <g>
    <path class="cls-6" d="M1514.36,959.85s-3.83-5.67-8.29-6.46h0c-.75-.14-1.52-.14-2.3,.05l-95.53,2.45,11.77-26.98,3.07-6.75s3.81,5.64,8.27,6.46c.77,.14,1.56,.14,2.34-.06l95.53-2.45-11.77,26.98-3.08,6.76Z"/>
    <rect class="cls-6" x="1352.67" y="869.09" width="252.3" height="105.58" rx="12" ry="12" transform="translate(528.16 -538.6) rotate(25)"/>
    <rect class="cls-6" x="1246.32" y="1097.17" width="252.3" height="105.58" rx="12" ry="12" transform="translate(614.58 -472.29) rotate(25)"/>
    <path class="cls-6" d="M1489.05,1016.66s-3.83-5.67-8.29-6.46h0c-.75-.14-1.52-.14-2.3,.05l-95.53,2.45,11.77-26.98,3.07-6.75s3.81,5.64,8.27,6.46c.77,.14,1.56,.14,2.34-.06l95.53-2.45-11.77,26.98-3.08,6.76Z"/>
    <path class="cls-6" d="M1462.37,1073.87s-3.83-5.67-8.29-6.46h0c-.75-.14-1.52-.14-2.3,.05l-95.53,2.45,11.77-26.98,3.07-6.75s3.81,5.64,8.27,6.46c.77,.14,1.56,.14,2.34-.06l95.53-2.45-11.77,26.98-3.08,6.76Z"/>
    <path class="cls-6" d="M1435.69,1131.08s-3.83-5.67-8.29-6.46h0c-.75-.14-1.52-.14-2.3,.05l-95.53,2.45,11.77-26.98,3.07-6.75s3.81,5.64,8.27,6.46c.77,.14,1.56,.14,2.34-.06l95.53-2.45-11.77,26.98-3.08,6.76Z"/>
    <path class="cls-6" d="M1391.92,1224.96s-3.83-5.67-8.29-6.46h0c-.75-.14-1.52-.14-2.3,.05l-95.53,2.45,11.77-26.98,3.07-6.75s3.81,5.64,8.27,6.46c.77,.14,1.56,.14,2.34-.06l95.53-2.45-11.77,26.98-3.08,6.76Z"/>
    <path class="cls-6" d="M1365,1282.69s-3.83-5.67-8.29-6.46h0c-.75-.14-1.52-.14-2.3,.05l-95.53,2.45,11.77-26.98,3.07-6.75s3.81,5.64,8.27,6.46c.77,.14,1.56,.14,2.34-.06l95.53-2.45-11.77,26.98-3.08,6.76Z"/>
    <path class="cls-6" d="M1338.93,1338.6s-3.83-5.67-8.29-6.46h0c-.75-.14-1.52-.14-2.3,.05l-95.53,2.45,11.77-26.98,3.07-6.75s3.81,5.64,8.27,6.46c.77,.14,1.56,.14,2.34-.06l95.53-2.45-11.77,26.98-3.08,6.76Z"/>
  </g>
  <path class="cls-6" d="M932.3,1361.76c19.02,35.62-26.94,48.38-26.94,48.38-11.23,15.7-26.43,11.74-26.43,11.74-17.36,8.68-34.47-15.06-34.47-15.06-41.62-16.09-23.36-45.06-23.36-45.06h111.19Z"/>
  <path class="cls-6" d="M1322.24,1361.76c19.02,35.62-26.94,48.38-26.94,48.38-11.23,15.7-26.43,11.74-26.43,11.74-17.36,8.68-34.47-15.06-34.47-15.06-41.62-16.09-23.36-45.06-23.36-45.06h111.19Z"/>
  <circle class="cls-3" cx="1075.04" cy="1096.58" r="733.06"/>
  <polygon class="cls-5" points="1712.6 569.88 1378.96 327.47 1635.48 148.31 1803.72 270.55 1712.6 569.88"/>
  <polygon class="cls-5" points="1900.43 1045.22 1772.99 652.99 2085.82 658.83 2150.09 856.61 1900.43 1045.22"/>
  <polygon class="cls-5" points="1772.99 1540.17 1900.43 1147.95 2150.09 1336.55 2085.82 1534.34 1772.99 1540.17"/>
  <polygon class="cls-5" points="1378.96 1865.7 1712.6 1623.29 1803.72 1922.62 1635.48 2044.86 1378.96 1865.7"/>
  <polygon class="cls-5" points="868.84 1897.44 1281.25 1897.44 1179.03 2193.17 971.06 2193.17 868.84 1897.44"/>
  <polygon class="cls-5" points="437.49 1623.29 771.13 1865.7 514.61 2044.86 346.37 1922.62 437.49 1623.29"/>
  <polygon class="cls-5" points="249.66 1147.95 377.1 1540.17 64.26 1534.34 0 1336.55 249.66 1147.95"/>
  <polygon class="cls-5" points="377.1 652.99 249.66 1045.22 0 856.61 64.26 658.83 377.1 652.99"/>
  <circle class="cls-1" cx="1066.79" cy="1093.9" r="8.68"/>
  <polygon class="cls-5" points="771.13 327.47 437.49 569.88 346.37 270.55 514.61 148.31 771.13 327.47"/>
  <polygon class="cls-5" points="1281.25 295.72 868.84 295.72 971.06 0 1179.03 0 1281.25 295.72"/>
</svg>